<?xml version="1.0" encoding="UTF-8"?>
<svg version="1.1" viewBox="0 0 1600 992" width="1280" height="1280" xmlns="http://www.w3.org/2000/svg">
<path transform="translate(1268 440)" d="m0 0c5.28 5.1 9.26 9.49 10.6 16.9 0.953 1.37 1.95 2.7 3 4 1.66 2.96 2.59 5.85 3.44 9.12 0.954 3.64 1.98 7.23 3.12 10.8 3.69 12.5 3.72 24.7 3.64 37.7-0.0184 3.22-0.0205 6.44-0.0203 9.66-0.00491 2.06-0.0107 4.13-0.0176 6.19-0.00111 0.954-0.00223 1.91-0.00337 2.89-0.00638 0.902-0.0128 1.8-0.0193 2.73-0.00381 0.783-0.00762 1.57-0.0116 2.37-0.168 3.2-0.681 6.37-1.13 9.55h-155c-1.71 8.57-1.11 16.4 0.375 24.9 0.189 1.1 0.189 1.1 0.382 2.22 1.07 5.77 2.77 9.24 6.24 13.8 1.07 1.77 2.13 3.54 3.19 5.31 8.31 13.1 21.6 19.7 36.2 23.6 34.8 7.52 68.1-0.192 99.6-15 2.3-1.06 4.62-2.01 6.98-2.91-0.165 0.619-0.33 1.24-0.5 1.88-0.42 2.63-0.505 4.75-0.438 7.38-0.00865 1.92-0.0316 3.83-0.0625 5.75 7.25e-4 0.994 7.25e-4 0.994 0.00146 2.01-0.124 12.8-0.124 12.8-4.07 17.4-2.56 1.58-5.08 2.8-7.89 3.86-2.27 0.855-4.47 1.81-6.7 2.77-35.4 14.9-80.3 18.1-117 4.13-19.5-8.03-35.1-21.1-44.8-40.1-0.667-2.33-1.33-4.67-2-7l-2-1c0.495-0.99 0.495-0.99 1-2l-2-1c-1.78-2.89-2.33-5.39-2.62-8.75-0.0748-0.799-0.15-1.6-0.227-2.42-0.049-0.603-0.098-1.21-0.148-1.83h-1c-1.05-4.29-1.14-8.44-1.13-12.8-0.00175-0.773-0.0035-1.55-0.00531-2.34-0.00439-2.55-0.00149-5.1 0.00189-7.65-6.74e-4 -1.78-0.00165-3.57-0.0029-5.35-0.00147-3.74 6.66e-4 -7.47 0.00534-11.2 0.00567-4.76 0.00243-9.53-0.00357-14.3-0.00364-3.68-0.00245-7.37 1.28e-4 -11.1 6.62e-4 -1.75-1.34e-4 -3.51-0.00248-5.26-0.0258-24.8-0.0258-24.8 3.2-33.4 0.724-1.98 1.38-3.99 2-6 6.72-21.6 18.8-38.2 38.9-48.9 39.2-19.9 93.2-16.3 126 13.5zm-118 22.9c-5.64 7.27-9.18 15.3-12 24-0.263 0.796-0.527 1.59-0.798 2.41-2.19 7.17-2.6 13.7-2.45 21.2 0.00516 1.09 0.0103 2.17 0.0156 3.29-0.407 4.89-0.407 4.89 1.23 9.08 1.56 0.0959 3.12 0.122 4.68 0.12 1.52 0.00206 1.52 0.00206 3.06 0.00417 1.12-0.0036 2.24-0.00719 3.39-0.0109 1.76 2.19e-4 1.76 2.19e-4 3.55 4.43e-4 3.22-5.79e-4 6.44-0.00561 9.66-0.0126 3.36-0.00623 6.72-0.00684 10.1-0.00803 6.37-0.00311 12.7-0.0113 19.1-0.0213 7.25-0.0112 14.5-0.0167 21.7-0.0217 14.9-0.0105 29.8-0.0281 44.7-0.0503 0.247-1.9 0.247-1.9 0.498-3.84 0.139-1.07 0.139-1.07 0.28-2.16 1.24-11.2-1.55-23.5-4.53-34.2l-0.69-2.56c-3.64-12.2-11.8-21.6-22.7-27.8-24.4-11.7-59.8-10.1-78.8 10.6zm-51 115 1 2zm3 14 1 2zm39 1 1 2z" fill="#00997B"/>
<path transform="translate(369,733)" d="m0 0c9.22-1.51 18.9-2.83 28 0 6.62 5.3 9.97 13.4 13.5 20.9 2.08 4.23 4.63 7.99 7.38 11.8 0.667 0.955 0.667 0.955 1.35 1.93 4.11 5.88 8.4 11.6 12.8 17.3 0.428 0.559 0.856 1.12 1.3 1.69 5.54 7.24 11.2 14.2 17.4 20.9 1.92 2.07 3.79 4.17 5.63 6.31 10.2 11.8 10.2 11.8 21.6 22.5 2.32 1.95 4.55 3.99 6.79 6.04 4.32 3.9 8.77 7.6 13.3 11.3 2.48 2.03 4.9 4.1 7.32 6.2 21.8 18.8 46.3 34.4 71.6 48.2l2.75 1.5c58.2 31.6 123 50.2 189 54.5 0.868 0.0578 1.74 0.116 2.63 0.175 31.3 2.03 62.8 0.686 93.8-3.8 2.4-0.346 4.79-0.668 7.19-0.987 93.3-12.9 180-59.1 248-123 2.67-2.48 5.39-4.88 8.18-7.23 4.95-4.29 9.24-9.2 13.6-14.1 1.23-1.37 2.48-2.74 3.72-4.1 18.5-20.3 34.3-42.7 48.9-66 0.469-0.724 0.939-1.45 1.42-2.19 1.36-2.15 1.36-2.15 2.26-4.5 1.12-2.47 1.94-3.94 4.04-5.68 4.8-0.995 9.44-0.753 14.3-0.5 1.31 0.0361 2.63 0.0722 3.98 0.109 3.24 0.0942 6.47 0.226 9.71 0.391-0.575 4.37-2.17 7.29-4.52 11-0.356 0.564-0.712 1.13-1.08 1.71-1.12 1.77-2.26 3.54-3.4 5.3-1.05 1.62-1.05 1.62-2.12 3.28-2.15 3.29-4.32 6.57-6.51 9.85-0.388 0.581-0.776 1.16-1.18 1.76-13.2 19.8-27.3 38.9-43.6 56.3-1.93 2.09-3.78 4.19-5.62 6.35-4.9 5.62-10.2 10.9-15.5 16.1-1.78 1.78-3.55 3.57-5.32 5.36-6.04 6.07-12.1 11.8-18.9 17.1-2.37 1.91-4.58 3.92-6.79 6.02-7.99 7.27-16.9 13.5-25.6 19.9-0.677 0.497-1.35 0.995-2.05 1.51-22.8 16.7-47.5 31.2-72.9 43.5l-2.08 1.01c-2.12 1.02-4.23 2.04-6.36 3.05-0.606 0.292-1.21 0.584-1.84 0.885-14.4 6.79-29.2 12.1-44.3 17-0.936 0.303-1.87 0.606-2.84 0.918-32.4 10.5-65.2 18.4-99 22.5-0.673 0.0815-1.35 0.163-2.04 0.247-17.7 2.11-35.1 2.63-52.9 2.63-3.78 0.00217-7.56 0.0203-11.3 0.0393-21.6 0.0514-43.1-1.06-64.5-4.47-0.68-0.107-1.36-0.213-2.06-0.323-83.4-13.1-162-45-229-97.1-1.72-1.34-3.44-2.66-5.16-3.98-6.82-5.25-13.3-10.7-19.6-16.6-2.11-1.96-4.23-3.83-6.42-5.69-5.67-4.94-10.9-10.3-16.3-15.6-1.8-1.81-3.61-3.61-5.42-5.42-5.82-5.82-11.5-11.7-16.8-18-0.925-1.05-1.85-2.1-2.78-3.14-17.1-19.5-32-41-45.9-62.8-1.31-2.04-2.65-4.06-4-6.08-0.422-0.637-0.844-1.27-1.28-1.93-0.791-1.19-1.59-2.38-2.39-3.57-2.12-3.22-2.64-4.46-2.64-8.46z" fill="#009B7C"/>
<path transform="translate(836 5.38)" d="m0 0c1.11 0.0308 2.21 0.0616 3.35 0.0933 1.54 0.0582 1.54 0.0582 3.12 0.118 0.891 0.0314 1.78 0.0628 2.7 0.0952 2.77 0.319 2.77 0.319 6.18 1.3 3.52 1 6.73 1.48 10.4 1.8 1.88 0.18 1.88 0.18 3.8 0.363 1.29 0.117 2.59 0.235 3.92 0.355 2.57 0.233 5.15 0.473 7.72 0.719 1.13 0.102 2.27 0.205 3.44 0.311 3.58 0.504 6.88 1.44 10.3 2.47 1.42 0.282 2.84 0.536 4.27 0.746 0.738 0.113 1.48 0.227 2.24 0.344 0.761 0.115 1.52 0.229 2.31 0.348 5.77 0.915 11.3 1.99 16.9 3.82 2.65 0.848 5.32 1.52 8.02 2.18 4.8 1.18 9.59 2.38 14.4 3.62 1.25 0.321 2.5 0.642 3.79 0.973 3.15 0.965 3.15 0.965 6.15 2.96 1.9 0.531 3.82 1 5.75 1.44 4.74 1.13 8.84 2.53 13.2 4.56 4.57 1.78 9.15 3.37 13.8 4.88 4.8 1.59 9.34 3.44 13.9 5.59 2.58 1.2 5.18 2.36 7.79 3.5 10.9 4.76 21.3 10 31.6 15.9 2.53 1.44 5.09 2.83 7.65 4.21 6.48 3.52 12.9 7.2 19.2 10.9v2c0.557 0.0825 1.11 0.165 1.69 0.25 3.02 0.978 4.85 2.76 7.31 4.75 1.98 1.04 3.97 2.06 6 3v2c0.928 0.217 0.928 0.217 1.88 0.438 2.12 0.562 2.12 0.562 4.12 1.56v2c0.577 0.289 1.15 0.578 1.75 0.875 2.08 1.04 4.17 2.08 6.25 3.12v2c0.849 0.141 0.849 0.141 1.71 0.285 2.83 0.885 4.55 2.28 6.85 4.15 2.44 1.97 4.82 3.82 7.44 5.56v2c0.722 0.227 1.44 0.454 2.19 0.688 3.39 1.58 5.2 3.64 7.81 6.31 2.11 1.6 4.25 3.15 6.43 4.67 0.519 0.44 1.04 0.879 1.57 1.33v2c1.65 1.03 3.32 2.02 5 3 1.02 0.981 2.02 1.98 3 3 0.66 0.33 1.32 0.66 2 1 0.289 0.639 0.577 1.28 0.875 1.94 1.4 2.56 2.53 2.8 5.12 4.06 3.75 3.44 7.04 7.28 10.4 11.1 2.03 2.3 4.19 4.43 6.4 6.55 2.01 2.07 3.95 4.16 5.88 6.31 0.59 0.66 1.18 1.32 1.79 2 1.59 2 1.59 2 2.61 4.19 0.901 2.17 0.901 2.17 3.98 2.81 1.38 1.63 2.71 3.3 4 5 0.66 0.66 1.32 1.32 2 2 2.8 3.27 5.45 6.59 8 10.1 1.8 2.44 3.5 4.43 5.69 6.56 2.54 2.6 3.75 5.12 5.31 8.38 0.979 1.02 1.98 2.02 3 3 2 2.88 3.87 5.78 5.62 8.81 1.19 2.31 1.19 2.31 3.38 3.19 0.93 1.64 0.93 1.64 1.88 3.69 1.3 2.72 2.65 5.22 4.38 7.69 1.75 2.62 1.75 2.62 1.75 4.62 0.99 0.33 1.98 0.66 3 1v2c0.66 0.66 1.32 1.32 2 2 1.26 2.3 2.46 4.59 3.62 6.94 0.325 0.634 0.65 1.27 0.984 1.92 1.45 2.9 2.39 4.85 2.39 8.14-4.25 0.174-8.5 0.281-12.8 0.375-1.21 0.0503-2.41 0.101-3.66 0.152-8.7 0.145-8.7 0.145-11.3-1.82-1.5-2.17-2.28-4.06-2.28-6.71h-2c-4-6.62-4-6.62-4-10h-2c-0.33-1.65-0.66-3.3-1-5h-2c-1.4-2.05-1.4-2.05-2.94-4.75-1.49-2.6-2.93-5.07-4.75-7.45-1.31-1.8-1.31-1.8-1.31-3.8h-2c-0.866-1.61-0.866-1.61-1.75-3.25-1.76-3.08-3.69-5.27-6.25-7.75-5-6.33-5-6.33-5-9h-2c-1.87-2.19-3.63-4.39-5.38-6.69-0.966-1.25-1.93-2.51-2.9-3.76-0.909-1.18-1.82-2.37-2.73-3.55-2.79-3.61-5.76-6.79-9-10-2.59-2.84-5.14-5.71-7.7-8.57-2.25-2.55-2.25-2.55-5.3-4.43v-2c-0.593-0.264-1.19-0.529-1.8-0.801-2.28-1.24-3.68-2.5-5.45-4.39-4.73-4.87-9.84-9.24-15.1-13.6-2.02-1.69-3.84-3.4-5.69-5.25l-3-2v-2c-0.547-0.237-1.09-0.474-1.66-0.719-3.98-2.17-7.24-5.27-10.7-8.19-2.2-1.73-4.11-2.99-6.66-4.09v-2c-2.47-0.99-2.47-0.99-5-2v-2c-0.691-0.246-1.38-0.492-2.09-0.746-3.37-1.45-6.35-3.31-9.41-5.32-0.609-0.395-1.22-0.79-1.85-1.2-4.18-2.72-8.27-5.56-12.3-8.43-5.57-3.89-11.3-7.17-17.3-10.3-1.42-0.787-2.84-1.58-4.25-2.38-21.6-12.2-21.6-12.2-44.4-21.8-3.18-1.09-6.23-2.45-9.31-3.79-8.9-3.64-17.8-7.04-27-10-1.59-0.522-1.59-0.522-3.21-1.05-12-3.85-24.1-7.06-36.3-10.3-1.84-0.504-3.66-1.07-5.47-1.68-1.63-0.334-3.26-0.644-4.89-0.938-1.43-0.259-1.43-0.259-2.9-0.523-0.997-0.178-1.99-0.356-3.02-0.539-0.985-0.178-1.97-0.356-2.99-0.539-2.73-0.492-5.47-0.982-8.2-1.46-0.931-0.165-1.86-0.33-2.82-0.5-3.77-0.593-7.56-1.02-11.4-1.44-1.57-0.174-3.13-0.349-4.7-0.523-2.45-0.271-4.9-0.542-7.35-0.81-2.38-0.261-4.76-0.526-7.13-0.792-0.736-0.0792-1.47-0.158-2.23-0.24-5.18-0.584-5.18-0.584-7.41-1.7-2.25-0.102-4.51-0.138-6.77-0.145-0.696-0.00336-1.39-0.00672-2.11-0.0102-2.31-0.00953-4.62-0.0115-6.93-0.0125-1.61-0.00321-3.22-0.00658-4.83-0.0101-3.38-6e-3 -6.77-0.00784-10.1-0.00725-4.31 1.01e-4 -8.63-0.0135-12.9-0.0308-3.33-0.0112-6.66-0.0131-9.99-0.0126-1.59-0.00117-3.18-0.00555-4.76-0.0133-7.62-0.0338-15-0.0121-22.4 1.76-3.09 0.721-6.19 0.987-9.34 1.27-1.29 0.12-2.57 0.24-3.89 0.363-1.99 0.178-3.98 0.356-5.98 0.533-7.16 0.641-13.9 1.4-20.9 3.32-2.68 0.515-5.37 0.939-8.06 1.38-7.46 1.27-14.7 3-22 5.07-2.05 0.575-4.1 1.13-6.16 1.67-13.9 3.71-27.6 8.09-41 13.2-1.64 0.623-3.29 1.23-4.95 1.83-7.13 2.64-13.9 5.78-20.6 9.24-2.69 1.33-5.33 2.49-8.14 3.55-11.6 4.48-22.4 10.7-33.2 16.8-0.975 0.546-1.95 1.09-2.96 1.66-5.23 2.97-10.1 6.11-15 9.66-1.42 0.824-2.85 1.62-4.31 2.38-4.42 2.37-8.4 5.19-12.4 8.17-2.26 1.45-2.26 1.45-4.49 1.97-0.584 0.16-1.17 0.32-1.77 0.484-0.33 0.99-0.66 1.98-1 3-1.36 0.953-2.73 1.9-4.14 2.78-6.54 4.28-12.5 9.53-18.6 14.4-1.12 0.889-1.12 0.889-2.26 1.8l-2.17 1.73c-1.83 1.27-1.83 1.27-3.83 1.27-0.223 0.571-0.446 1.14-0.676 1.73-1.72 2.94-3.83 4.5-6.51 6.58-3.93 3.12-7.56 6.29-11 9.91-1.77 1.77-3.62 3.38-5.53 5-4.17 3.63-7.95 7.53-11.7 11.6-0.98 1.06-0.98 1.06-1.98 2.13-1.29 1.39-2.58 2.79-3.86 4.18-1.43 1.55-2.86 3.1-4.3 4.64-5.72 6.21-10.9 12.8-16.1 19.5-1.29 1.67-2.59 3.33-3.9 4.98-10.7 13.3-10.7 13.3-19.5 27.8h-2l-0.688 2.49c-1.6 4.29-3.84 7.86-6.31 11.7-0.451 0.711-0.902 1.42-1.37 2.15-1.85 2.91-3.72 5.79-5.63 8.66-2.71 0.341-2.71 0.341-6.1 0.293-1.21-0.00967-2.42-0.0193-3.67-0.0293-1.27-0.0251-2.54-0.0503-3.85-0.0762-1.28-0.0135-2.56-0.0271-3.88-0.041-3.17-0.0355-6.33-0.0849-9.5-0.146 0.475-4.83 1.26-8.05 4-12.1 0.632-0.944 1.26-1.89 1.91-2.86l2.09-3.08c1.09-1.68 2.17-3.37 3.25-5.06 1.13-1.76 2.26-3.52 3.4-5.28 1.64-2.54 3.25-5.1 4.85-7.66 0.408-0.648 0.815-1.3 1.23-1.96 0.787-1.25 1.57-2.51 2.34-3.77 0.92-1.46 1.91-2.87 2.92-4.27h2l0.629-2c1.88-4.12 4.53-7.44 7.31-11 0.578-0.748 1.16-1.5 1.75-2.27 5.25-6.74 10.7-13.3 16.3-19.7 0.611-0.712 1.22-1.42 1.85-2.16 3.96-4.58 8.06-9.03 12.2-13.5 2.46-2.67 4.86-5.37 7.17-8.17 2.69-3.2 5.75-5.85 8.93-8.56 2.42-2.09 4.65-4.33 6.88-6.62 8.49-8.59 17.5-16.5 27-24l1.97-1.56c16-12.7 32.5-24.4 49.8-35.1 1.98-1.22 3.95-2.46 5.93-3.69 27-16.7 56.3-30.3 86.3-40.7 1.56-0.561 3.12-1.12 4.68-1.69 9.74-3.5 19.5-6.62 29.5-9.27 2.26-0.616 4.5-1.27 6.71-2.03 4.25-1.39 8.57-2.42 12.9-3.45 0.923-0.22 1.85-0.439 2.8-0.665 7.74-1.81 15.5-3.25 23.4-4.54 2.3-0.408 4.58-0.896 6.86-1.38 6.16-1.25 12.3-1.71 18.6-2.19 0.88-0.0748 1.76-0.15 2.67-0.227 0.779-0.0606 1.56-0.121 2.36-0.184 2.72-0.338 2.72-0.338 5.89-1.39 3.9-1.05 7.29-1.31 11.3-1.4 1.09-0.0292 1.09-0.0292 2.19-0.059 2.36-0.0604 4.73-0.107 7.09-0.152 1.66-0.0373 3.32-0.0749 4.98-0.113 20.7-0.448 41.4-0.54 62.1 0.113z" fill="#00997C"/>
<path transform="translate(404 416)" d="m0 0c0.676 2.11e-4 1.35 4.23e-4 2.05 6.41e-4 11.7 0.0363 22.7 1.15 34 4.37 1.24 0.351 2.48 0.701 3.76 1.06 3.52 1.14 6.85 2.45 10.2 3.94 0.703 0.305 1.41 0.611 2.13 0.925 12.8 5.74 12.8 5.74 15.1 10.7 0.255 2.88 0.0826 5.49-0.195 8.36 0.151 1.86 0.338 3.71 0.562 5.56 0.475 5.16 0.539 10.3 0.438 15.4-0.965-0.545-0.965-0.545-1.95-1.1-26.5-14.8-54.1-21.5-84.1-13.9-13.5 4.06-24 11.7-31 24-10.5 20.7-10.2 42.5-10.4 65.2-0.0133 2.66-0.0438 5.33-0.082 7.99-0.45 21.9-0.45 21.9 5.43 42.8 0.99 0.99 0.99 0.99 2 2 1.92 2.26 3.7 4.51 5.24 7.05 7.02 11.5 18.1 18.4 30.9 21.7 29.8 7.02 58.6 0.197 84.5-15.3 0.779-0.485 1.56-0.969 2.36-1.47 0.125 7.5 0.125 7.5-0.492 9.97-0.579 2.32-0.648 4.42-0.691 6.81-0.561 14.6-0.561 14.6-3.79 18.8-2.63 1.56-5.12 2.53-8.03 3.46-1.67 0.824-3.34 1.66-5 2.5-29.2 12.7-64.8 15.6-95 4.29-21.9-8.63-36-22.5-46-43.8v-2c-0.66-0.33-1.32-0.66-2-1-0.678-2.33-1.34-4.66-2-7-0.66-0.66-1.32-1.32-2-2-1.61-6.06-2.24-12.4-2.75-18.6-0.223-2.46-0.223-2.46-0.753-5.18-0.465-3.03-0.62-5.84-0.622-8.9-0.00315-1.1-0.0063-2.19-0.00955-3.32 0.00202-1.17 0.00405-2.34 0.00613-3.55-9.57e-4 -1.22-0.00191-2.45-0.0029-3.71-6.8e-4 -2.59 0.00116-5.18 0.00534-7.77 0.00531-3.92 6.72e-5 -7.84-0.00635-11.8 6.62e-4 -2.52 0.00194-5.05 0.00391-7.57-0.00202-1.16-0.00405-2.31-0.00613-3.5 0.0333-11.9 0.583-23.5 3.33-35.1 0.221-0.942 0.443-1.88 0.671-2.85 5.64-23 17-41.4 37.1-54.2 9.36-5.45 19.4-8.85 30-11 0.858-0.177 1.72-0.353 2.6-0.535 8.15-1.53 16.1-1.85 24.4-1.84zm-94 172 1 2zm1 5 1 2zm161 17c0.99 1.48 0.99 1.48 2 3v-3h-2z" fill="#00987A"/>
<path transform="translate(939,427)" d="m0 0c1.04 0.412 2.07 0.824 3.14 1.25 3.5 1.62 6.08 3.07 8.86 5.75 1.74 5.14 1.77 10.1 1.75 15.4 0.0363 1.41 0.0779 2.83 0.125 4.24 0.103 3.44 0.134 6.88 0.125 10.3-4.86 0-7.66-1.85-11.8-4.19-22.8-12.5-49-15-74.2-8.81-7.01 2.19-12.8 5.14-18.5 9.86-1.52 1.14-1.52 1.14-3.52 1.14-0.272 0.585-0.544 1.17-0.824 1.77-1.16 2.19-2.44 3.93-3.99 5.85-15.6 20.6-14.6 47.1-14.6 71.7-0.012 3.85-0.0614 7.69-0.112 11.5-0.0861 13.5 0.487 25.5 5.54 38.2h2c1.66 2.48 1.66 2.48 3.5 5.75 0.608 1.07 1.22 2.13 1.84 3.23 1.27 2.32 2.5 4.64 3.66 7.02h2c0.66 0.701 1.32 1.4 2 2.12 11.3 11.6 28.3 14.8 43.8 15.2 22.7 0.21 42.8-4.78 62.1-17 2.12-1.25 2.12-1.25 4.12-1.25-0.166 0.714-0.333 1.43-0.504 2.16-0.497 2.84-0.526 5.33-0.434 8.21 0 18.7 0 18.7-3.5 23.6-2.42 1.79-4.78 2.84-7.57 4-0.7 0.31-1.4 0.62-2.12 0.939-30.5 13.5-66.9 17.8-98.9 6.06-13.1-5.39-25.3-12.6-34-24-0.572-0.749-1.14-1.5-1.73-2.27-6.02-8.25-11.1-17-14.3-26.7-0.66-0.99-1.32-1.98-2-3-0.607-2.59-1.12-5.13-1.56-7.75-0.126-0.672-0.251-1.34-0.381-2.04-2.57-14.7-2.24-29.8-2.24-44.6-0.00219-3.45-0.0204-6.89-0.0393-10.3-0.0395-15.3 0.509-30.3 3.97-45.3 0.17-0.738 0.34-1.48 0.515-2.24 5.3-22 15.7-40.3 35.3-52.6 33.1-19.8 78.1-19.4 112-3.12zm-149 156 1 2zm1 5 1 2zm1 5 1 2z" fill="#00987A"/>
<path transform="translate(762,421)" d="m0 0v3c0.153 0.929 0.307 1.86 0.465 2.82 0.894 5.99 0.904 12.1 1.1 18.1 0.0432 1.26 0.0864 2.51 0.131 3.81 0.106 3.09 0.208 6.17 0.307 9.26-1.08-0.217-2.16-0.433-3.27-0.656-22.6-4.3-45.7-4.23-65.8 8.65-2.7 1.93-5.3 3.94-7.89 6.01-1.05 0.763-2.1 1.53-3.19 2.31-7.95 7.6-19.3 22.8-20 34.3-0.00645 1.07-0.0129 2.15-0.0196 3.25-0.0147 1.85-0.0147 1.85-0.0297 3.74-0.0059 1.37-0.0117 2.74-0.0174 4.1-0.00958 1.44-0.0196 2.88-0.03 4.32-0.0271 3.91-0.0481 7.82-0.068 11.7-0.0219 4.08-0.0492 8.17-0.0761 12.3-0.0499 7.73-0.0949 15.5-0.138 23.2-0.0494 8.81-0.104 17.6-0.16 26.4-0.114 18.1-0.22 36.2-0.323 54.3h-37c-1.32-3.96-1.14-7.75-1.13-11.9-0.00156-0.919-0.00312-1.84-0.00473-2.79-4e-3 -3.09-8.23e-4 -6.19 0.00232-9.28-0.00135-2.21-0.00313-4.42-0.00531-6.64-0.00457-6.02-0.00279-12 3.79e-4 -18.1 0.00253-6.29 1.85e-4 -12.6-0.00139-18.9-0.00194-11.2 0.00118-22.5 0.00626-33.7 0.00447-10.2 0.00369-20.4-9.19e-4 -30.6-0.00535-11.8-0.00734-23.7-0.00439-35.5 0.00156-6.27 0.00176-12.5-0.00154-18.8-0.00288-5.89-8.98e-4 -11.8 0.00489-17.7 0.00133-2.17 9.36e-4 -4.33-0.00126-6.5-0.00272-2.95 6.77e-4 -5.9 0.00568-8.84-0.00335-1.3-0.00335-1.3-0.00676-2.62 0.0111-3.34 0.0699-6.07 1.13-9.26h37c-0.33 4.62-0.66 9.24-1 14-0.134 3.67-0.248 7.32-0.316 11-0.0208 0.957-0.0416 1.91-0.063 2.9-0.0643 2.99-0.124 5.99-0.183 8.98-0.0433 2.06-0.0869 4.11-0.131 6.17-0.106 4.99-0.207 9.97-0.307 15 2.73-3.47 4.15-6.72 5.69-10.9 7.61-19.7 19.8-35.7 39.3-44.9 4.57-1.89 9.19-3.23 14-4.25 1.3-0.277 1.3-0.277 2.63-0.559 13-1.7 26.9-1.47 39.4 2.56z" fill="#00987B"/>
<path transform="translate(1e3 338)" d="m0 0h38c-0.33 0.99-0.66 1.98-1 3-0.0913 1.74-0.124 3.48-0.123 5.23-0.00199 1.09-0.00398 2.18-0.00603 3.3 0.00291 1.2 0.00583 2.4 0.00883 3.64-8.54e-4 1.27-0.00171 2.55-0.00259 3.86-0.00224 3.54 0.00177 7.08 0.00678 10.6 0.00431 3.81 0.00286 7.63 0.0021 11.4-5.25e-4 6.61 0.00262 13.2 0.00824 19.8 0.00812 9.56 0.0107 19.1 0.012 28.7 0.00219 15.5 0.00885 31 0.0183 46.5 0.00918 15.1 0.0163 30.1 0.0205 45.2 2.63e-4 0.928 5.25e-4 1.86 7.96e-4 2.81 0.00131 4.66 0.00257 9.31 0.00381 14 0.0104 38.6 0.0283 77.3 0.0503 116h-37c-1.13-10.1-1.13-10.1-1.13-14.8-0.00261-1.07-0.00522-2.14-0.0079-3.24 0.00223-1.15 0.00446-2.29 0.00676-3.48-0.00156-1.24-0.00312-2.48-0.00473-3.75-0.00329-3.42-0.00212-6.83 9.86e-4 -10.3 0.00227-3.69-0.00123-7.39-0.00398-11.1-0.00444-7.22-0.00349-14.4-5.87e-4 -21.7 0.00226-5.87 0.00256-11.7 0.00148-17.6-2.3e-4 -1.25-2.3e-4 -1.25-4.64e-4 -2.53-3.2e-4 -1.7-6.44e-4 -3.4-9.73e-4 -5.1-0.00285-15.9 4.24e-4 -31.8 0.0058-47.7 0.00447-13.7 0.00369-27.3-9.19e-4 -41-0.00535-15.9-0.00746-31.7-0.00439-47.6 3.19e-4 -1.69 6.33e-4 -3.38 9.43e-4 -5.07 1.54e-4 -0.832 3.09e-4 -1.66 4.68e-4 -2.52 8.64e-4 -5.87-5.96e-4 -11.7-0.00295-17.6-0.0028-7.14-0.00206-14.3 0.00328-21.4 0.00263-3.65 0.00365-7.29 3.51e-4 -10.9-0.00351-3.95 6.73e-4 -7.89 0.00568-11.8-0.00223-1.16-0.00446-2.32-0.00676-3.52 0.00261-1.05 0.00522-2.1 0.0079-3.19 1.62e-4 -0.911 3.25e-4 -1.82 4.92e-4 -2.76 0.125-2.3 0.125-2.3 1.13-5.3z" fill="#00997C"/>
<path transform="translate(369,736)" d="m0 0c4.25-0.0871 8.5-0.14 12.8-0.188 1.21-0.0251 2.41-0.0503 3.66-0.0762 1.16-0.00967 2.32-0.0193 3.52-0.0293 1.07-0.0157 2.14-0.0314 3.24-0.0476 3.22 0.386 4.52 1.13 6.84 3.34 1.31 2.23 1.31 2.23 2.44 4.75 1.81 3.83 3.74 7.16 6.35 10.5 1.21 1.77 1.21 1.77 2.6 4.61 1.67 3.26 3.59 5.99 5.8 8.91 3.81 5.03 3.81 5.03 3.81 7.25h2c1.23 1.58 1.23 1.58 2.62 3.81 6.62 10.2 14 19.5 22 28.7 1.08 1.24 2.16 2.48 3.23 3.73 2.67 3.09 5.39 6.11 8.19 9.09 0.55 0.588 1.1 1.18 1.67 1.78 1.11 1.18 2.22 2.36 3.33 3.53 3.91 4.17 3.91 4.17 3.91 6.39l4 2v2c0.557 0.247 1.11 0.495 1.69 0.75 4.83 2.61 8.46 6.4 12.3 10.2 1.1 0.905 2.2 1.8 3.31 2.69 0.887 0.763 1.77 1.53 2.69 2.31v2c0.539 0.227 1.08 0.454 1.63 0.688 3.1 1.72 5.6 3.98 8.24 6.31 5.26 4.56 10.7 8.71 16.5 12.7 3.22 2.22 5.94 4.57 8.67 7.35 5.39 4.12 11 7.76 17 11v2c0.557 0.103 1.11 0.206 1.69 0.312 2.79 0.829 4.93 2.03 7.31 3.69v2l1.61 0.293c3.15 0.93 5.77 2.43 8.64 4.02 4.87 2.67 9.76 5.24 14.8 7.69v2c0.817 0.238 1.63 0.477 2.48 0.723 4.97 1.8 9.45 4.36 14.1 6.91 4.12 2.23 8.18 4.1 12.6 5.67 2.79 1.03 5.44 2.33 8.12 3.63 5.24 2.46 10.5 4.39 16 6.13 3.28 1.1 6.37 2.49 9.51 3.93 32.3 14.3 70.7 21.9 106 25.6 2.32 0.254 4.63 0.546 6.94 0.883 23 3.22 46.4 2.72 69.5 1.64 0.988-0.0452 1.98-0.0905 2.99-0.137 2.81-0.132 5.62-0.272 8.44-0.418 1.28-0.0627 1.28-0.0627 2.58-0.127 4.19-0.139 4.19-0.139 8.12-1.44 1.54-0.186 3.08-0.321 4.63-0.43 1.42-0.108 1.42-0.108 2.86-0.218 1.01-0.0752 2.03-0.15 3.07-0.228 8.12-0.637 16.1-1.54 24-3.25 4.09-0.833 7.37-1.04 11.4 0.123 0.66 0.99 1.32 1.98 2 3 2.92 0.405 2.92 0.405 6.25 0.25 1.12-0.0155 2.24-0.0309 3.39-0.0469 3.19-0.193 6.21-0.67 9.36-1.2 1.62-0.0621 3.25-0.0871 4.88-0.0625 0.781 0.00902 1.56 0.018 2.37 0.0273 0.87 0.0174 0.87 0.0174 1.76 0.0352-3.23 2.15-4.28 2.2-8 2v2c0.915-0.168 1.83-0.335 2.77-0.508 1.19-0.204 2.38-0.407 3.6-0.617 1.78-0.313 1.78-0.313 3.59-0.633 1-0.0799 2.01-0.16 3.04-0.242 0.66 0.66 1.32 1.32 2 2-5.86 3.52-12.2 4.57-18.9 5.94-1.24 0.26-2.49 0.52-3.77 0.788-16.1 3.31-32.1 5.97-48.4 7.96-0.974 0.119-1.95 0.239-2.95 0.362-16.2 1.88-32.2 2.14-48.5 2.14-3.78 0.00217-7.56 0.0203-11.3 0.0393-21.6 0.0514-43.1-1.06-64.5-4.47-0.68-0.107-1.36-0.213-2.06-0.323-83.4-13.1-162-45-229-97.1-1.72-1.34-3.44-2.66-5.16-3.98-6.82-5.25-13.3-10.7-19.6-16.6-2.11-1.96-4.23-3.83-6.42-5.69-5.67-4.94-10.9-10.3-16.3-15.6-1.8-1.81-3.61-3.61-5.42-5.42-5.82-5.82-11.5-11.7-16.8-18-0.925-1.05-1.85-2.1-2.78-3.14-17.1-19.5-32-41-45.9-62.8-1.32-2.07-2.66-4.14-4-6.2-0.422-0.651-0.844-1.3-1.28-1.97-0.797-1.23-1.59-2.46-2.39-3.68-2.64-4.09-2.64-4.09-2.64-5.2z" fill="#009C7C"/>
<path transform="translate(524,421)" d="m0 0h37c-0.33 0.99-0.66 1.98-1 3-0.0943 3.01-0.13 6-0.12 9.02-0.00128 1.4-0.00128 1.4-0.00259 2.83-0.00165 3.14 0.00386 6.28 0.00932 9.42 2.82e-4 2.25 1.24e-4 4.49-4.43e-4 6.74-2.88e-4 6.11 0.0056 12.2 0.0126 18.3 0.00624 6.38 0.00684 12.8 0.00803 19.1 0.00276 10.7 0.00901 21.4 0.0179 32.1 0.00918 11 0.0163 22.1 0.0205 33.1 2.63e-4 0.68 5.25e-4 1.36 7.96e-4 2.06 0.00131 3.41 0.00257 6.83 0.00381 10.2 0.0104 28.3 0.0281 56.6 0.0503 84.9-5.09 0.074-10.2 0.129-15.3 0.165-1.73 0.0151-3.46 0.0356-5.2 0.0615-2.49 0.0363-4.97 0.0534-7.46 0.0667-0.777 0.0155-1.55 0.031-2.35 0.0469-2.18 6.87e-4 -2.18 6.87e-4 -5.72-0.34-2.62-3.93-2.28-7.27-2.25-11.8-0.00312-0.914-0.00624-1.83-0.00945-2.77-8e-3 -3.08-0.00165-6.15 0.00463-9.23-0.00271-2.2-0.00627-4.4-0.0106-6.6-0.00914-5.99-0.00557-12 7.58e-4 -18 0.00505-6.26 3.71e-4 -12.5-0.00277-18.8-0.00388-11.2 0.00235-22.4 0.0125-33.6 0.00893-10.1 0.00739-20.3-0.00184-30.4-0.0107-11.8-0.0147-23.5-0.00878-35.3 0.00312-6.23 0.00352-12.5-0.00307-18.7-0.00577-5.86-0.00179-11.7 0.00979-17.6 0.00265-2.15 0.00188-4.31-0.00253-6.46-0.00544-2.93 0.00136-5.87 0.0114-8.8-0.00446-0.858-0.00892-1.72-0.0135-2.6 0.0281-4.24 0.326-6.48 2.27-10.4z" fill="#00997B"/>
<path transform="translate(806,5)" d="m0 0c9.67-0.146 19.3 0.0687 29 0.375 1.17 0.0309 2.34 0.0617 3.54 0.0935 1.68 0.0581 1.68 0.0581 3.4 0.117 0.999 0.0314 2 0.0628 3.03 0.0952 3.51 0.369 6.65 1.34 10 2.32 2.25 0.317 4.52 0.576 6.78 0.781 1.25 0.12 2.51 0.24 3.8 0.363 1.29 0.117 2.59 0.235 3.92 0.355 2.57 0.233 5.15 0.473 7.72 0.719 1.13 0.102 2.27 0.205 3.44 0.311 3.58 0.504 6.88 1.44 10.3 2.47 1.42 0.282 2.84 0.536 4.27 0.746 0.738 0.113 1.48 0.227 2.24 0.344 1.14 0.172 1.14 0.172 2.31 0.348 5.77 0.915 11.3 1.99 16.9 3.82 2.65 0.848 5.32 1.52 8.02 2.18 4.8 1.18 9.59 2.38 14.4 3.62 1.25 0.321 2.5 0.642 3.79 0.973 3.15 0.965 3.15 0.965 6.15 2.96 1.9 0.531 3.82 1 5.75 1.44 4.74 1.13 8.84 2.53 13.2 4.56 4.57 1.78 9.15 3.37 13.8 4.88 4.8 1.59 9.34 3.44 13.9 5.59 2.58 1.2 5.18 2.36 7.79 3.5 10.9 4.76 21.3 10 31.6 15.9 2.53 1.44 5.09 2.83 7.65 4.21 6.48 3.52 12.9 7.2 19.2 10.9v2c0.557 0.0825 1.11 0.165 1.69 0.25 3.02 0.978 4.85 2.76 7.31 4.75 1.98 1.04 3.97 2.06 6 3v2c0.619 0.144 1.24 0.289 1.88 0.438 2.12 0.562 2.12 0.562 4.12 1.56v2c0.577 0.289 1.16 0.578 1.75 0.875 2.08 1.04 4.17 2.08 6.25 3.12v2c0.566 0.0941 1.13 0.188 1.71 0.285 2.83 0.885 4.55 2.28 6.85 4.15 2.44 1.97 4.82 3.82 7.44 5.56v2c0.722 0.227 1.44 0.454 2.19 0.688 3.39 1.58 5.2 3.64 7.81 6.31 2.11 1.6 4.25 3.15 6.43 4.67 0.519 0.44 1.04 0.879 1.57 1.33v2c1.65 1.03 3.32 2.02 5 3 1.02 0.981 2.02 1.98 3 3 0.66 0.33 1.32 0.66 2 1 0.433 0.959 0.433 0.959 0.875 1.94 1.4 2.56 2.53 2.8 5.12 4.06 3.75 3.44 7.04 7.28 10.4 11.1 2.03 2.3 4.19 4.43 6.4 6.55 2.01 2.07 3.95 4.16 5.88 6.31 0.59 0.66 1.18 1.32 1.79 2 1.59 2 1.59 2 2.61 4.19 0.901 2.17 0.901 2.17 3.98 2.81 1.38 1.63 2.71 3.3 4 5 0.66 0.66 1.32 1.32 2 2 2.8 3.27 5.45 6.59 8 10.1 1.8 2.44 3.5 4.43 5.69 6.56 2.54 2.6 3.75 5.12 5.31 8.38 0.979 1.02 1.98 2.02 3 3 2 2.88 3.87 5.78 5.62 8.81 1.19 2.31 1.19 2.31 3.38 3.19 0.93 1.64 0.93 1.64 1.88 3.69 1.3 2.72 2.65 5.22 4.38 7.69 1.75 2.63 1.75 2.63 1.75 4.62 0.99 0.33 1.98 0.66 3 1v2c0.66 0.66 1.32 1.32 2 2 1.26 2.3 2.46 4.59 3.62 6.94 0.325 0.634 0.65 1.27 0.984 1.92 1.45 2.9 2.39 4.85 2.39 8.14-4.25 0.174-8.5 0.281-12.8 0.375-1.21 0.0503-2.41 0.101-3.66 0.152-8.7 0.145-8.7 0.145-11.3-1.82-1.5-2.17-2.28-4.06-2.28-6.71h-2c-4-6.62-4-6.62-4-10h-2c-0.33-1.65-0.66-3.3-1-5h-2c-1.4-2.05-1.4-2.05-2.94-4.75-1.49-2.6-2.93-5.07-4.75-7.45-1.31-1.8-1.31-1.8-1.31-3.8h-2c-0.866-1.61-0.866-1.61-1.75-3.25-1.76-3.08-3.69-5.27-6.25-7.75-5-6.33-5-6.33-5-9h-2c-1.87-2.19-3.63-4.39-5.38-6.69-0.966-1.25-1.93-2.51-2.9-3.76-0.464-0.605-0.928-1.21-1.41-1.83-2.41-3.13-4.78-6.17-7.57-8.97-2.39-2.39-4.71-4.82-7-7.31-0.686-0.744-1.37-1.49-2.08-2.25-1.68-2.19-2.15-3.53-2.67-6.18-0.536-0.681-1.07-1.36-1.62-2.06-0.454-0.639-0.908-1.28-1.38-1.94 0.33-0.99 0.66-1.98 1-3-0.99 0.33-1.98 0.66-3 1-3.5-1.71-6.39-4.01-8.44-7.31-0.186-0.557-0.371-1.11-0.562-1.69h2c-1.83-2.07-1.83-2.07-4-2.88-2.48-1.4-2.75-2.62-4-5.12-1.66-1.34-3.32-2.68-5-4v-2c-0.99-0.33-1.98-0.66-3-1v-2c-0.619-0.0412-1.24-0.0825-1.88-0.125-0.701-0.289-1.4-0.577-2.12-0.875-0.704-1.99-1.37-3.99-2-6-0.99-0.33-1.98-0.66-3-1v-2c-1.65-0.66-3.3-1.32-5-2-0.33-2.31-0.66-4.62-1-7-0.887 0.227-1.77 0.454-2.69 0.688-3.9 0.368-5.29-0.285-8.31-2.69v-2c-3.3-1.32-6.6-2.64-10-4v-2h-3c-0.33-0.99-0.66-1.98-1-3-2.91-1.42-5.85-2.3-9-3 0.33-0.99 0.66-1.98 1-3-0.875-2.17-0.875-2.17-2-4-1.49 0.495-1.49 0.495-3 1-0.66-0.66-1.32-1.32-2-2-0.928-0.309-1.86-0.619-2.81-0.938-3.11-1.04-5.4-2.37-8.19-4.06-1.22-0.537-2.45-1.06-3.69-1.56-3.31-1.44-3.31-1.44-5.31-3.44-0.125-2.62-0.125-2.62 0-5-0.626-0.133-1.25-0.266-1.9-0.402-0.817-0.177-1.63-0.353-2.48-0.535-0.812-0.174-1.62-0.348-2.46-0.527-2.16-0.535-2.16-0.535-4.16-1.54v-2h-6v-2h-3c-0.33-1.32-0.66-2.64-1-4-0.718 0.182-1.44 0.364-2.18 0.551-2.99 0.476-5.06 0.257-8.01-0.363-0.86-0.171-1.72-0.343-2.61-0.52-2.21-0.668-2.21-0.668-4.21-2.67-2.36-0.616-4.74-1.15-7.12-1.62-1.28-0.26-2.56-0.521-3.88-0.789-1.48-0.29-1.48-0.29-2.99-0.586 0.66-1.65 1.32-3.3 2-5h3v-2c-6.93-0.495-6.93-0.495-14-1-0.33-0.99-0.66-1.98-1-3-1.44-0.169-2.87-0.335-4.31-0.5-1.2-0.139-1.2-0.139-2.43-0.281-2.38-0.267-2.38-0.267-5.26-0.219-0.33-1.65-0.66-3.3-1-5-6.43-0.495-6.43-0.495-13-1v-2h-5c2-2 2-2 5-3-0.969 0.0206-1.94 0.0413-2.94 0.0625-3.06-0.0625-3.06-0.0625-4.06-1.06-1.15-0.144-2.31-0.289-3.5-0.438-1.15-0.186-2.31-0.371-3.5-0.562-0.33-0.66-0.66-1.32-1-2h-11c0.33 0.66 0.66 1.32 1 2-5.77 1.35-11.3 0.941-17.2 0.688-1.11-0.0354-2.21-0.0709-3.35-0.107-1.58-0.0648-1.58-0.0648-3.19-0.131-1.44-0.0567-1.44-0.0567-2.92-0.115-2.35-0.335-2.35-0.335-4.35-2.33v-1c-0.949 0.186-1.9 0.371-2.88 0.562-3.12 0.438-3.12 0.438-5.12-0.562v-2c-0.603 0.119-1.21 0.237-1.83 0.359-2.44 0.393-4.7 0.683-7.17 0.641-2.56-1.88-2.56-1.88-4-4v-1c-0.771-0.133-1.54-0.266-2.34-0.402-1-0.177-2.01-0.353-3.04-0.535-0.998-0.174-2-0.348-3.02-0.527-2.6-0.535-2.6-0.535-4.6-1.54-0.33 0.66-0.66 1.32-1 2-1.96 0.289-3.92 0.573-5.89 0.754-2.1 0.19-2.1 0.19-4.07 0.801-2.42 0.53-4.33 0.332-6.79 0.00781-0.799-0.102-1.6-0.204-2.42-0.309-0.603-0.0838-1.21-0.168-1.83-0.254 0.66-0.66 1.32-1.32 2-2-1.13 0.0619-2.27 0.124-3.44 0.188-4.9 0.0263-9.04-1.43-13.6-3.19 0.99-0.66 1.98-1.32 3-2-2.97-0.33-5.94-0.66-9-1 0.99 0.66 1.98 1.32 3 2-0.619 0.289-1.24 0.578-1.88 0.875-2.26 1.06-2.26 1.06-4.12 3.12v-3c-0.84 0.0157-0.84 0.0157-1.7 0.0317-2.54 0.0416-5.08 0.0676-7.62 0.0933-1.32 0.0251-1.32 0.0251-2.67 0.0508-0.848 0.00645-1.7 0.0129-2.57 0.0195-1.17 0.0157-1.17 0.0157-2.36 0.0317-2.08-0.227-2.08-0.227-5.08-2.23v-2c-1.34 0.0522-1.34 0.0522-2.7 0.105-1.17 0.0271-2.34 0.0541-3.55 0.082l-3.52 0.105c-3.46-0.313-4.75-0.95-7.23-3.29 3.86-2.57 7.13-2.35 11.6-2.41 0.839-0.0194 1.68-0.0387 2.54-0.0587 2.68-0.0598 5.36-0.106 8.04-0.152 1.82-0.0382 3.63-0.0772 5.45-0.117 4.45-0.096 8.91-0.18 13.4-0.258-0.66-0.66-1.32-1.32-2-2z" fill="#009A7C"/>
<path transform="translate(1038,340)" d="m0 0c1.32 0.33 2.64 0.66 4 1v311h-37c-0.33-2.97-0.66-5.94-1-9h1c0.33-95 0.66-190 1-288h3c0.33 1.32 0.66 2.64 1 4 0.623 0.0722 1.25 0.144 1.89 0.219 2.11 0.781 2.11 0.781 3.2 2.75 0.241 0.835 0.482 1.67 0.73 2.53 0.254 0.815 0.508 1.63 0.77 2.47 0.467 3.39 0.0961 6.18-0.349 9.55-0.414 4.4-0.0298 8.77 0.267 13.2 0.724 10.9 0.724 10.9-0.5 16.3-0.66-1.32-1.32-2.64-2-4v33c0.66-0.99 1.32-1.98 2-3 1.14 3.43 1.13 6.06 1.13 9.68 0.00227 0.682 0.00453 1.36 0.00687 2.07 0.00634 2.29 0.00551 4.58 0.00469 6.87 0.00299 1.64 0.00639 3.28 0.0102 4.92 0.00885 4.46 0.0112 8.93 0.0118 13.4 7.1e-4 2.79 0.00284 5.58 0.0055 8.37 0.00926 9.74 0.0133 19.5 0.0125 29.2-6e-4 9.07 0.00994 18.1 0.0257 27.2 0.0131 7.79 0.0184 15.6 0.0178 23.4-2.55e-4 4.65 0.00257 9.3 0.0132 13.9 0.00971 4.38 0.00974 8.76 0.00248 13.1-0.00104 1.6 0.0013 3.2 0.00736 4.81 0.0281 7.94-0.185 15.3-2.25 23-0.223 2.71-0.237 5.38-0.195 8.1 0.00283 0.72 0.00566 1.44 0.00858 2.18 0.011 2.26 0.0361 4.52 0.0617 6.78 0.01 1.55 0.0192 3.1 0.0273 4.65 0.0219 3.76 0.0563 7.53 0.0977 11.3 4.34-0.185 4.34-0.185 8-2 1.52-0.0718 3.04-0.0839 4.56-0.0625 0.826 0.00902 1.65 0.018 2.5 0.0273 0.638 0.0116 1.28 0.0232 1.93 0.0352 0.172-2.4 0.338-4.79 0.5-7.19 0.0477-0.654 0.0954-1.31 0.145-1.98 0.625-9.42 0.449-18.8-0.00647-28.3-1.06-22.7-0.668-45.5-0.538-68.3 0.0348-6.29 0.0631-12.6 0.0921-18.9 0.0494-10.5 0.103-21 0.159-31.6 0.058-10.8 0.114-21.6 0.166-32.5 0.00325-0.671 0.0065-1.34 0.00985-2.03 0.0163-3.37 0.0325-6.73 0.0488-10.1 0.134-27.8 0.276-55.5 0.424-83.3h3c0.309 0.639 0.619 1.28 0.938 1.94 0.897 2 0.897 2 2.06 3.06 0.33-6.93 0.66-13.9 1-21-0.66-0.33-1.32-0.66-2-1v-2z" fill="#009D7C"/>
<path transform="translate(791 4.95)" d="m0 0c2.35-0.0451 4.71-0.0757 7.06-0.102 0.711-0.0151 1.42-0.0302 2.15-0.0458 3.69-0.0233 5.16 0.0923 8.32 2.2-2.07 2.07-6.48 1.23-9.34 1.28-1.26 0.0276-1.26 0.0276-2.54 0.0558-2.69 0.0589-5.37 0.112-8.06 0.163-3.53 0.0675-7.06 0.141-10.6 0.219-0.818 0.0136-1.64 0.0272-2.48 0.0411-4.13-0.00902-4.13-0.00902-7.99 1.24 3.42 2.28 4.57 2.2 8.56 2.06 5.24-0.16 5.24-0.16 7.44 0.938v2c2.71 0.905 4.6 1.18 7.41 1.32 0.843 0.0419 1.69 0.0838 2.55 0.127 1.31 0.059 1.31 0.059 2.66 0.119 0.884 0.0432 1.77 0.0864 2.68 0.131 3.85 0.215 3.85 0.215 7.7 0.307 0.66-1.32 1.32-2.64 2-4 4.29 0.66 8.58 1.32 13 2-0.66 0.66-1.32 1.32-2 2 3.35 2.03 5.87 2.22 9.75 2.12 0.985-0.018 1.97-0.0361 2.98-0.0547 0.748-0.0232 1.5-0.0464 2.27-0.0703-0.99 0.66-1.98 1.32-3 2 1.65 0.194 3.29 0.38 4.94 0.562 0.917 0.104 1.83 0.209 2.78 0.316 0.754 0.04 1.51 0.0799 2.29 0.121 0.33-0.33 0.66-0.66 1-1 2-0.257 3.99-0.512 5.99-0.719 2.21-0.248 2.21-0.248 5.01-1.28 2.07 0.241 4.14 0.562 6.19 0.938 1.09 0.195 2.17 0.389 3.29 0.59 0.831 0.156 1.66 0.312 2.52 0.473v2c1.87 2.02 3.28 2.93 6.05 3.19 1.99-0.00352 3.97-0.0923 5.95-0.191v2c3.3-0.33 6.6-0.66 10-1v3c4.1 0.197 8.21 0.381 12.3 0.562 1.17 0.0561 2.33 0.112 3.54 0.17 1.68 0.0725 1.68 0.0725 3.39 0.146 1.03 0.0471 2.06 0.0943 3.13 0.143 2.75 0.113 2.75 0.113 5.64-1.02-0.99-0.66-1.98-1.32-3-2 2.29-0.0538 4.58-0.0927 6.88-0.125 1.28-0.0232 2.55-0.0464 3.87-0.0703 3.26 0.195 3.26 0.195 5.26 2.2 2.19 0.614 4.4 1.15 6.62 1.62 1.19 0.26 2.38 0.521 3.6 0.789 0.915 0.193 1.83 0.387 2.77 0.586-0.33 0.66-0.66 1.32-1 2h-3c1.32 0.33 2.64 0.66 4 1v2h13l3 6c1.49-0.495 1.49-0.495 3-1 2.26 0.34 2.26 0.34 4.69 0.938 0.808 0.195 1.62 0.389 2.45 0.59 0.615 0.156 1.23 0.312 1.86 0.473-0.33 0.99-0.66 1.98-1 3 0.888-0.0174 0.888-0.0174 1.79-0.0352 4.21-0.0481 8.1-0.0249 12.2 1.04v2h-3c-0.33 1.32-0.66 2.64-1 4 0.88 0.182 1.76 0.364 2.67 0.551 1.74 0.377 1.74 0.377 3.52 0.762 1.15 0.244 2.3 0.487 3.48 0.738 3.33 0.949 3.33 0.949 5.9 2.51 2.83 1.68 4.86 1.96 8.12 2.19 0.953 0.0773 1.91 0.155 2.89 0.234 2.44 0.199 2.44 0.199 4.43-0.984 0.33 0.99 0.66 1.98 1 3-0.33 0.66-0.66 1.32-1 2h3v2h6v2h5v2h6c0.0825 0.743 0.165 1.48 0.25 2.25 0.942 3.46 1.91 4.57 4.75 6.75 2.04 0.873 4.08 1.61 6.2 2.29 1.8 0.711 1.8 0.711 3.8 2.71 3.29 1.21 6.59 2.21 10 3v2c1.32 0.66 2.64 1.32 4 2-1 2-1 2-2 3 1.39-0.0928 1.39-0.0928 2.81-0.188 3.19 0.188 3.19 0.188 5.06 1.5 1.12 1.69 1.12 1.69 1.12 4.69h3c0.33 0.66 0.66 1.32 1 2 2.34 0.91 2.34 0.91 5.06 1.62 0.919 0.26 1.84 0.521 2.79 0.789 0.71 0.193 1.42 0.387 2.15 0.586v3c3.62 1.32 6.1 2 10 2 0.247 1.11 0.495 2.23 0.75 3.38 0.86 3.67 0.86 3.67 3.38 5.06 0.928 0.278 0.928 0.278 1.88 0.562v2c1.32 0.33 2.64 0.66 4 1 0.33 1.98 0.66 3.96 1 6 0.598 0.103 1.2 0.206 1.81 0.312 2.5 0.786 3.56 1.66 5.19 3.69v2c0.866 0.371 0.866 0.371 1.75 0.75 3.74 2.08 5.89 4.18 7.25 8.25 2.02 0.733 2.02 0.733 4 1v4c2.32 2.82 4.61 4.64 8 6h2c0.155 1.11 0.155 1.11 0.312 2.25 0.73 2.92 1.76 4.48 3.69 6.75-3 0-3 0-6-2v-2c-0.593-0.264-1.19-0.529-1.8-0.801-2.28-1.24-3.68-2.5-5.45-4.39-4.73-4.87-9.84-9.24-15.1-13.6-2.02-1.69-3.84-3.4-5.69-5.25-0.99-0.66-1.98-1.32-3-2v-2c-0.547-0.237-1.09-0.474-1.66-0.719-3.98-2.17-7.24-5.27-10.7-8.19-2.2-1.73-4.11-2.99-6.66-4.09v-2c-1.65-0.66-3.3-1.32-5-2v-2c-0.691-0.246-1.38-0.492-2.09-0.746-3.37-1.45-6.35-3.31-9.41-5.32-0.609-0.395-1.22-0.79-1.85-1.2-4.18-2.72-8.27-5.56-12.3-8.43-5.57-3.89-11.3-7.17-17.3-10.3-1.42-0.787-2.84-1.58-4.25-2.38-21.6-12.2-21.6-12.2-44.4-21.8-3.18-1.09-6.23-2.45-9.31-3.79-8.9-3.64-17.8-7.04-27-10-1.59-0.522-1.59-0.522-3.21-1.05-12-3.85-24.1-7.06-36.3-10.3-1.84-0.504-3.66-1.07-5.47-1.68-1.63-0.334-3.26-0.644-4.89-0.938-0.956-0.173-1.91-0.345-2.9-0.523-0.997-0.178-1.99-0.356-3.02-0.539-0.985-0.178-1.97-0.356-2.99-0.539-2.73-0.492-5.47-0.982-8.2-1.46-0.931-0.165-1.86-0.33-2.82-0.5-3.77-0.593-7.56-1.02-11.4-1.44-1.57-0.174-3.13-0.349-4.7-0.523-2.45-0.271-4.9-0.542-7.35-0.81-2.38-0.261-4.76-0.526-7.13-0.792-0.736-0.0792-1.47-0.158-2.23-0.24-5.18-0.584-5.18-0.584-7.41-1.7-2.25-0.102-4.51-0.138-6.77-0.145-0.696-0.00336-1.39-0.00672-2.11-0.0102-2.31-0.00953-4.62-0.0115-6.93-0.0125-1.61-0.00321-3.22-0.00658-4.83-0.0101-3.38-6e-3 -6.77-0.00784-10.1-0.00725-4.31 1.01e-4 -8.63-0.0135-12.9-0.0308-3.33-0.0112-6.66-0.0131-9.99-0.0126-1.59-0.00117-3.18-0.00555-4.76-0.0133-7.62-0.0338-15-0.0121-22.4 1.76-3.09 0.721-6.19 0.987-9.34 1.27-1.29 0.12-2.57 0.24-3.89 0.363-1.99 0.178-3.98 0.356-5.98 0.533-7.16 0.641-13.9 1.4-20.9 3.32-2.68 0.515-5.37 0.939-8.06 1.38-7.46 1.27-14.7 3-22 5.07-2.05 0.575-4.1 1.13-6.16 1.67-13.9 3.71-27.6 8.09-41 13.2-1.64 0.623-3.29 1.23-4.95 1.83-7.12 2.64-13.8 5.78-20.6 9.24-3.48 1.73-7 3.14-10.6 4.51-4.59 1.93-8.96 4.36-13.3 6.72-3.41 1.44-5.65 1.68-9.3 1.39 0.476-4.28 2.8-6.3 6-9 3.31-1.31 3.31-1.31 6-2v-2c5.55-2.84 9.8-3.38 16-3 0.309-0.969 0.619-1.94 0.938-2.94 1.06-3.06 1.06-3.06 2.06-4.06 3.21-0.236 6.41-0.397 9.63-0.518 1.8-0.0917 3.58-0.28 5.37-0.482 0.495-0.99 0.495-0.99 1-2 4.63-2.75 8.93-1.82 14-1v-2c-0.99-0.495-0.99-0.495-2-1 0.66-0.99 1.32-1.98 2-3 2.16-0.293 2.16-0.293 4.62-0.188 0.817 0.0271 1.63 0.0541 2.48 0.082 0.626 0.0348 1.25 0.0696 1.9 0.105-0.33-0.99-0.66-1.98-1-3 3.67-2.35 6.74-2 11-2 2.49-0.829 4.66-1.83 7-3 0.151-3.63 0.151-3.63-1-7h5c0.0427 1.67 0.0406 3.33 0 5-0.495 0.495-0.495 0.495-1 1 4.67 1.59 8.23 2.66 13 1 0.289-0.804 0.577-1.61 0.875-2.44 1.12-2.56 1.12-2.56 2.98-3.37 2.21-0.566 2.21-0.566 6.14-1.19 0.33 0.33 0.66 0.66 1 1 7.02-0.207 14.1-0.844 21-2 0.33-0.99 0.66-1.98 1-3 1.65-0.33 3.3-0.66 5-1-0.33-1.32-0.66-2.64-1-4 1.65-0.33 3.3-0.66 5-1-0.33-0.99-0.66-1.98-1-3 1.06-1.5 1.06-1.5 3-3h7c3.09-0.825 6-1.89 9-3h-13v-2c0.939-0.128 0.939-0.128 1.9-0.26 2.83-0.389 5.65-0.783 8.48-1.18 0.985-0.135 1.97-0.269 2.98-0.408 1.41-0.198 1.41-0.198 2.85-0.4 0.869-0.12 1.74-0.241 2.63-0.365 2.2-0.292 2.2-0.292 4.15-1.39 2.57-0.157 5.12-0.259 7.69-0.316 0.778-0.0208 1.56-0.0416 2.36-0.063 1.66-0.0433 3.32-0.0844 4.98-0.123 2.48-0.0584 4.95-0.124 7.43-0.191 5.67-0.148 11.3-0.241 17-0.357z" fill="#009D7C"/>
<path transform="translate(369,733)" d="m0 0c9.22-1.51 18.9-2.83 28 0 6.62 5.3 9.97 13.4 13.5 20.9 2.08 4.23 4.63 7.99 7.38 11.8 0.667 0.955 0.667 0.955 1.35 1.93 4.11 5.88 8.4 11.6 12.8 17.3 0.428 0.559 0.856 1.12 1.3 1.69 5.54 7.24 11.2 14.2 17.4 20.9 1.92 2.07 3.79 4.17 5.63 6.31 10.2 11.8 10.2 11.8 21.6 22.5 2.32 1.95 4.55 3.99 6.79 6.04 4.32 3.9 8.77 7.6 13.3 11.3 2.48 2.03 4.9 4.1 7.32 6.2 21.8 18.8 46.3 34.4 71.6 48.2l2.75 1.5c58.2 31.6 123 50.2 189 54.5 0.868 0.0578 1.74 0.116 2.63 0.175 31.3 2.03 62.8 0.686 93.8-3.8 2.4-0.346 4.79-0.668 7.19-0.987 93.3-12.9 180-59.1 248-123 2.67-2.48 5.39-4.88 8.18-7.23 4.95-4.29 9.24-9.2 13.6-14.1 1.23-1.37 2.48-2.74 3.72-4.1 13.2-14.4 25.2-30 36-46.2 2.28-3.41 4.55-6.38 7.6-9.18-0.612 4.08-2.77 6.81-5.12 10.1-0.403 0.571-0.806 1.14-1.22 1.73-0.822 1.16-1.65 2.33-2.47 3.49-1.68 2.36-3.34 4.73-4.99 7.1-0.558 0.794-1.12 1.59-1.69 2.41-1.28 1.85-2.52 3.71-3.75 5.59-1.47 2.15-2.88 3.78-4.75 5.56-0.66 0.99-1.32 1.98-2 3h-2c-0.227 0.701-0.454 1.4-0.688 2.12-1.85 4.06-4.6 7.17-7.76 10.3-1.74 1.75-3.37 3.58-4.99 5.44-0.922 1.06-0.922 1.06-1.86 2.13-1.32 1.55-2.58 3.14-3.82 4.74-1.88 2.25-1.88 2.25-4.19 4.06-2.4 1.95-4.19 3.85-6.19 6.19-2.62 3.07-5.28 5.55-8.5 8-2.52 2.46-4.98 4.98-7.44 7.5-2.73 2.67-5.63 5.06-8.56 7.5-0.804 0.804-1.61 1.61-2.44 2.44-3.05 3.05-6.25 5.81-9.56 8.56-0.661 0.55-1.32 1.1-2 1.67-5.72 4.67-11.6 9.07-17.6 13.5-1.19 0.879-1.19 0.879-2.4 1.78-15.1 11.1-15.1 11.1-18 11.1v2c-2.02 1.38-4.02 2.64-6.12 3.88-1.15 0.684-2.3 1.37-3.45 2.05-0.572 0.34-1.14 0.681-1.73 1.03-1.64 1-3.23 2.07-4.83 3.15-2.5 1.65-4.92 2.99-7.62 4.27-3.49 1.7-6.82 3.53-10.1 5.56-10.5 6.37-21.7 11.2-32.9 16.1-2.22 0.977-4.43 1.97-6.64 2.96-18.5 8.23-37.5 14.9-57 20.3-2.29 0.635-4.56 1.29-6.84 1.96-22.9 6.55-47.1 11-70.8 12.5-3.71 0.023-3.71 0.023-5.93 1.29-2.9 0.242-5.79 0.427-8.7 0.57-1.33 0.0688-1.33 0.0688-2.69 0.139-2.91 0.146-5.83 0.282-8.74 0.416-0.989 0.0461-1.98 0.0923-3 0.14-23.4 1.06-46.7 1.05-69.9-2.26-1.73-0.186-3.47-0.367-5.2-0.543-15.9-1.66-31.3-4.68-46.8-8.46-1.13-0.273-2.25-0.546-3.41-0.828-18.6-4.53-18.6-4.53-27.6-7.17-0.978-0.284-1.96-0.567-2.96-0.859-8.22-2.46-16.2-5.39-24.2-8.45-2.47-0.932-4.96-1.81-7.45-2.69-15.6-5.63-15.6-5.63-21.8-9.5-2.7-1.57-5.44-2.6-8.36-3.66-4.12-1.57-8.06-3.51-12-5.41-0.845-0.399-1.69-0.798-2.56-1.21-3.37-1.61-6.51-3.15-9.63-5.23v-2c-0.681-0.0825-1.36-0.165-2.06-0.25-3.73-0.952-6.69-2.76-9.94-4.75-1.75-1.06-3.5-2.13-5.25-3.19-0.83-0.509-1.66-1.02-2.52-1.54-2.29-1.39-2.29-1.39-5.23-2.27v-2c-0.743-0.289-1.48-0.578-2.25-0.875-2.32-0.948-4.53-1.97-6.75-3.12v-2c-1.33-0.371-1.33-0.371-2.69-0.75-3.54-1.34-5.42-2.82-8.31-5.25-2.65-1.82-5.31-3.63-7.99-5.41-0.664-0.523-1.33-1.05-2.01-1.59v-2c-0.709-0.236-1.42-0.472-2.15-0.715-3.36-1.51-5.68-3.44-8.48-5.85-1.06-0.907-2.12-1.81-3.19-2.72-0.532-0.456-1.06-0.913-1.61-1.38-2.37-2.01-4.78-3.95-7.2-5.9-6.24-5.1-12.4-10.4-18-16.1-2.02-1.97-3.96-3.49-6.25-5.12-2.85-2.08-5.16-4.21-7.43-6.91-3.53-4.11-7.21-8.04-10.9-12-6.51-6.9-12.7-14-18.8-21.3-0.775-0.941-1.55-1.88-2.35-2.85-3.2-3.94-6.07-7.78-8.65-12.1-1.31-1.84-2.66-3.64-4.01-5.45-0.988-1.55-0.988-1.55-0.988-3.55h-2c-0.939-1.32-1.86-2.65-2.72-4.03-1.54-2.38-3.23-4.63-4.9-6.91-2.83-4.01-4.44-7.27-5.38-12.1h-2c-1.47-2.01-1.47-2.01-3.06-4.69-0.527-0.87-1.05-1.74-1.6-2.64-1.34-2.68-1.34-2.68-2.34-7.68-9.57-0.33-19.1-0.66-29-1v-3z" fill="#000002"/>
<path transform="translate(560,424)" d="m0 0v228h-36c-2.63-3.94-2.27-7.29-2.24-11.9-0.00171-0.917-0.00342-1.83-0.00518-2.78-0.00331-3.09 0.00773-6.17 0.0186-9.26 5.64e-4 -2.21 2.48e-4 -4.41-8.85e-4 -6.62-5.75e-4 -6 0.0112-12 0.0251-18 0.0125-6.27 0.0137-12.5 0.0161-18.8 0.00552-10.5 0.018-21.1 0.0359-31.6 0.0184-10.8 0.0325-21.7 0.041-32.5 5.25e-4 -0.668 0.00105-1.34 0.00159-2.03 0.00261-3.35 0.00514-6.71 0.00762-10.1 0.0209-27.8 0.0561-55.6 0.101-83.5h2c3.02 4.86 3.44 9.02 3.69 14.7 0.102 0.757 0.204 1.51 0.309 2.29l2 1c0.916 3.34 1.12 6.49 1.11 9.94-0.00207 0.962-0.00414 1.92-0.00628 2.92-0.00756 1.04-0.0151 2.08-0.0229 3.15-0.00415 1.1-0.0083 2.2-0.0126 3.34-0.0153 3.55-0.0387 7.1-0.0636 10.7-0.00704 1.14-0.0141 2.29-0.0213 3.47-0.0526 8.48-0.124 17-0.197 25.4-0.0225 2.68-0.0449 5.35-0.0673 8.03-0.0523 6.25-0.106 12.5-0.159 18.8-0.0613 7.13-0.121 14.3-0.181 21.4-0.123 14.6-0.248 29.3-0.373 43.9h-2c-0.756 9.94-1.11 19.8-1.12 29.8-0.00451 1.04-0.00902 2.09-0.0137 3.16 0.00193 0.984 0.00387 1.97 0.00586 2.98 0.00113 0.876 0.00226 1.75 0.00342 2.66 0.123 2.26 0.496 4.22 1.13 6.39h2c0.681 1.18 0.681 1.18 1.38 2.38 1.81 2.92 2.48 3.47 5.62 4.62 4.48 0.378 8.65 0.162 13-1 2.5-2.36 3.81-4.8 5-8 0.99 0.33 1.98 0.66 3 1-0.495-12.9-0.495-12.9-1-26-0.66-0.33-1.32-0.66-2-1v-9h-3v-140h2v-2h-2v-3h2v-2h-2v-3h-3c-0.33 0.99-0.66 1.98-1 3-1.62-2.57-2.04-3.68-1.62-6.75 0.309-1.11 0.309-1.11 0.625-2.25h2v3h2c0.33-1.65 0.66-3.3 1-5h2c0.495-1.49 0.495-1.49 1-3 0.33 0.33 0.66 0.66 1 1 0.66-5.61 1.32-11.2 2-17-1.32-0.33-2.64-0.66-4-1 2-1 2-1 6 0z" fill="#009D7C"/>
<path transform="translate(1217,425)" d="m0 0c4.09 0.933 7.88 1.86 11.7 3.62 3.15 1.55 3.15 1.55 6.12 1.38h2.19c0.99 1.49 0.99 1.49 2 3 2.58 0.25 2.58 0.25 5 0 0.186 0.598 0.371 1.2 0.562 1.81 2.16 3.29 4.79 3.84 8.44 5.19v5c1.65 0.33 3.3 0.66 5 1 0.33 0.99 0.66 1.98 1 3 0.99-0.33 1.98-0.66 3-1 2.52 1.07 4.67 2.55 7 4v3h4c-0.66-0.784-1.32-1.57-2-2.38-2-2.62-2-2.62-2-4.62-0.66-0.33-1.32-0.66-2-1-1.08-1.32-2.12-2.68-3.12-4.06-0.539-0.733-1.08-1.47-1.63-2.22-0.41-0.566-0.82-1.13-1.24-1.71 0.66-0.66 1.32-1.32 2-2v2c0.87 0.373 0.87 0.373 1.76 0.754 7.9 4.39 12.4 13.4 16.2 21.2h2c0.17 0.715 0.34 1.43 0.516 2.17 1.58 6.51 3.39 12.9 5.52 19.2 3.23 12 3.24 23.8 3.17 36.2-0.0184 3.22-0.0205 6.44-0.0203 9.66-0.00491 2.06-0.0107 4.13-0.0176 6.19-0.00111 0.954-0.00223 1.91-0.00337 2.89-0.00638 0.902-0.0128 1.8-0.0193 2.73-0.00381 0.783-0.00762 1.57-0.0116 2.37-0.168 3.2-0.681 6.37-1.13 9.55h-155c-1.71 8.57-1.11 16.4 0.375 24.9 0.126 0.734 0.252 1.47 0.382 2.22 0.661 3.57 1.38 6.7 3.24 9.84 2.05 3.98 3.69 7.94 4.94 12.2 0.351 0.908 0.701 1.82 1.06 2.75 0.99 0.33 1.98 0.66 3 1 0.309 0.825 0.619 1.65 0.938 2.5 0.351 0.825 0.701 1.65 1.06 2.5 2.04 0.887 2.04 0.887 4 1-0.33 0.66-0.66 1.32-1 2-1.32-0.66-2.64-1.32-4-2v-2c-0.866-0.371-0.866-0.371-1.75-0.75-4.62-2.56-6.36-5.46-8.25-10.2-0.99-0.66-1.98-1.32-3-2-0.66 0.99-1.32 1.98-2 3-1.56-2.31-1.56-2.31-3-5 0.33-0.99 0.66-1.98 1-3l2-1c-0.33-2.31-0.66-4.62-1-7h-1c-0.33-1.65-0.66-3.3-1-5-0.33 2.97-0.66 5.94-1 9l-2-1c-0.99 0.33-1.98 0.66-3 1-0.66-1.32-1.32-2.64-2-4h3c-0.0116-0.953-0.0232-1.91-0.0352-2.89-0.0135-1.88-0.0135-1.88-0.0273-3.8-0.0116-1.24-0.0232-2.48-0.0352-3.76 0.0829-3.01 0.389-5.63 1.1-8.55h-2c-0.33-2.97-0.66-5.94-1-9 1.65-0.33 3.3-0.66 5-1 0.103-0.598 0.206-1.2 0.312-1.81 0.805-2.56 1.62-3.5 3.69-5.19 2.89-0.353 5.6-0.557 8.5-0.625 5.83-0.118 5.83-0.118 11.5-1.38 0.495 0.495 0.495 0.495 1 1 1.77 0.0494 3.54 0.036 5.31 0 4.63-0.0397 9.2 0.0618 13.8 0.356 44.8 3.36 44.8 3.36 88.9-2.36v-5h3c0.99 1.49 0.99 1.49 2 3 3.01 1 5.04 1.1 8.19 1.06 0.901-0.00902 1.8-0.018 2.73-0.0273 0.687-0.0116 1.37-0.0232 2.08-0.0352 0.121-0.964 0.242-1.93 0.367-2.92 0.251-1.89 0.251-1.89 0.508-3.83 0.162-1.25 0.325-2.51 0.492-3.8 0.553-3.02 1.26-4.8 2.63-7.45 0.451-2.59 0.451-2.59 0.625-5.25 0.0748-0.892 0.15-1.78 0.227-2.7 0.049-0.675 0.098-1.35 0.148-2.05h-3v8l-2-1c-0.369-11.5-0.369-11.5 2-17h3c-0.66-1.32-1.32-2.64-2-4 0.66-0.66 1.32-1.32 2-2 0.714-1.98 1.39-3.98 2-6-0.99 0.33-1.98 0.66-3 1v4h-2v-5h-2v-5h-2c-0.33-1.65-0.66-3.3-1-5 0.99-0.33 1.98-0.66 3-1-0.33 1.32-0.66 2.64-1 4h2v-5c-1.65-0.33-3.3-0.66-5-1 0.33-0.99 0.66-1.98 1-3-0.99-0.33-1.98-0.66-3-1-0.0864-0.843-0.173-1.69-0.262-2.55-0.141-1.1-0.281-2.19-0.426-3.32-0.191-1.64-0.191-1.64-0.387-3.3-0.458-1.4-0.458-1.4-0.926-2.82-2.39-1.23-2.39-1.23-5-2-1.55-1.62-1.55-1.62-2.75-3.44-0.407-0.597-0.815-1.19-1.23-1.81-1.02-1.75-1.02-1.75-2.02-4.75-3.17-1.31-5.56-2-9-2v-2h-2c-0.495-2.97-0.495-2.97-1-6h-2c-0.495-0.99-0.495-0.99-1-2-1.11-0.124-2.23-0.248-3.38-0.375-3.62-0.625-3.62-0.625-5.12-2.5-0.495-0.701-0.99-1.4-1.5-2.12-5.33-3.11-9.54-3.24-15.6-2.91-2.36-0.0898-2.36-0.0898-4.36-2.09h7v-2c-2.31-0.33-4.62-0.66-7-1v-2z" fill="#009D7B"/>
<path transform="translate(1107,464)" d="m0 0h4c-0.186 0.598-0.371 1.2-0.562 1.81-0.658 2.35-0.658 2.35 0.562 5.19-0.265 2.34-0.606 4.68-1 7-0.144 1.01-0.289 2.02-0.438 3.06-0.594 3.1-1.5 5.97-2.56 8.94h-2v15c0.66-0.66 1.32-1.32 2-2-0.0412 0.908-0.0825 1.82-0.125 2.75-0.119 3.13-0.119 3.13 1.16 5.16 1.19 2.58 1 4.06 0.594 6.84-0.166 1.2-0.166 1.2-0.336 2.42-0.0954 0.603-0.191 1.21-0.289 1.83h-2v11c-1.98 0.495-1.98 0.495-4 1 0.0838 1.12 0.168 2.24 0.254 3.39 0.103 1.47 0.206 2.95 0.309 4.42 0.0561 0.738 0.112 1.48 0.17 2.24 0.225 3.32 0.33 5.76-0.732 8.95 0.295 6 1.35 9.09 5 14 2.24 6.71 2.1 14.3 1.88 21.4-0.0676 4.64 1.13 7.47 3.12 11.6 0.398 1.99 0.755 3.99 1 6h-3c1.61 3.09 1.61 3.09 3.91 3.62 1.44 0.25 2.87 0.5 4.31 0.75 0.587 0.206 1.17 0.413 1.78 0.625 0.33 0.99 0.66 1.98 1 3 0.66 0.66 1.32 1.32 2 2h-3c0.495 0.99 0.495 0.99 1 2 0.619 0.0825 1.24 0.165 1.88 0.25 2.12 0.75 2.12 0.75 3.88 3.69 1.25 3.06 1.25 3.06 1.25 5.06 0.784 0.144 1.57 0.289 2.38 0.438 2.62 0.562 2.62 0.562 4.62 1.56v2c0.557 0.0825 1.11 0.165 1.69 0.25 2.31 0.75 2.31 0.75 4.56 2.75 3.1 2.25 4.98 2.2 8.69 2.46 2.66 0.69 3.5 1.87 5.31 3.91 10 9.54 31.8 7.18 44.7 7.47 2.04 0.158 2.04 0.158 5.04 1.16 0.66-1.32 1.32-2.64 2-4 2.08 0.114 4.17 0.242 6.25 0.375 1.16 0.0696 2.32 0.139 3.52 0.211 2.98 0.382 4.65 1.01 7.23 2.41 2.2-0.298 2.2-0.298 4-1v2h5c0.33-0.99 0.66-1.98 1-3 0.99 0.33 1.98 0.66 3 1v-2h2v-3h2v-2h6c0.33 1.65 0.66 3.3 1 5 1.46 0.027 2.92 0.0464 4.38 0.0625 1.22 0.0174 1.22 0.0174 2.46 0.0352 2.21 0.047 2.21 0.047 4.16-1.1v2c1.65-0.33 3.3-0.66 5-1v2c-8.13 2.97-16.2 5.45-24.7 7.25-1.12 0.244-1.12 0.244-2.26 0.493-33.6 6.87-73 3.68-102-14.9-13.3-9.46-24.1-22.1-28.6-37.9-0.66-0.33-1.32-0.66-2-1 0.495-0.99 0.495-0.99 1-2-0.66-0.33-1.32-0.66-2-1-1.78-2.89-2.33-5.39-2.62-8.75-0.0748-0.799-0.15-1.6-0.227-2.42-0.049-0.603-0.098-1.21-0.148-1.83h-1c-1.05-4.29-1.14-8.44-1.13-12.8-0.00175-0.773-0.0035-1.55-0.00531-2.34-0.00439-2.55-0.00149-5.1 0.00189-7.65-6.74e-4 -1.78-0.00165-3.57-0.0029-5.35-0.00147-3.74 6.66e-4 -7.47 0.00534-11.2 0.00567-4.76 0.00243-9.53-0.00357-14.3-0.00364-3.68-0.00245-7.37 1.28e-4 -11.1 6.62e-4 -1.75-1.34e-4 -3.51-0.00248-5.26-0.0258-24.7-0.0258-24.7 4.14-36 0.911-2.68 1.8-5.37 2.69-8.06 0.441-1.32 0.882-2.65 1.32-3.97 0.326-0.978 0.652-1.96 0.988-2.96zm-8 114 1 2zm3 14 1 2z" fill="#009D7B"/>
<path transform="translate(557,338)" d="m0 0c3.91 3.1 5.37 5.1 6 10 0.493 0.808 0.493 0.808 0.996 1.63 1.48 3.49 1.37 6.95 1.38 10.7 0.0367 1.1 0.0367 1.1 0.0742 2.22 0.0299 5.62-1.27 8.83-4.45 13.5-6.81 6.46-14 6.52-22.9 6.32-6.35-0.34-10.2-2.27-14.6-6.94-1.5-2.38-1.5-2.38-1.5-4.38h-2c-3.01-6.02-1.82-16.8-0.164-23.2 2.63-5.81 6.3-9.26 12.2-11.8 7.95-2.55 17.6-1.8 25 2z" fill="#009578"/>
<path transform="translate(801,459)" d="m0 0c1.32 0.33 2.64 0.66 4 1 1.41 7.32 1.41 7.32-1 11-0.526 1.05-0.526 1.05-1.06 2.12-0.646 1.29-1.29 2.58-1.94 3.88h-2c-0.0271 3.04-0.0469 6.08-0.0625 9.12-0.00838 0.856-0.0168 1.71-0.0254 2.59-0.02 5.2 0.142 10.1 1.65 15.2 0.694 3.37 0.495 6.69 0.438 10.1h1c0.155 4.25 0.117 7.93-0.973 12.1-1.28 5.52-1.44 11-1.59 16.6-0.365 12.1-0.365 12.1-1.44 17.3-0.99-0.66-1.98-1.32-3-2-0.33 1.65-0.66 3.3-1 5 0.66 0.33 1.32 0.66 2 1 0.495-0.495 0.495-0.495 1-1 4.05 4.05 3.13 11.2 3.14 16.6-0.00387 0.886-0.00773 1.77-0.0117 2.69 0.00387 0.906 0.00773 1.81 0.0117 2.74-0.00129 0.864-0.00258 1.73-0.00391 2.62-0.00113 0.783-0.00226 1.57-0.00342 2.37-0.129 1.95-0.129 1.95-1.13 3.95h-2v2c0.66 0.33 1.32 0.66 2 1h-2c0.33 0.578 0.66 1.15 1 1.75 1 2.25 1 2.25 1 6.25-1.88-0.125-1.88-0.125-4-1-1.12-2.88-1.12-2.88-2-6-0.66-0.99-1.32-1.98-2-3-0.607-2.59-1.12-5.13-1.56-7.75-0.126-0.672-0.251-1.34-0.381-2.04-2.57-14.7-2.24-29.8-2.24-44.6-0.00219-3.45-0.0204-6.89-0.0393-10.3-0.0398-15.4 0.535-30.4 4.04-45.5 0.168-0.738 0.336-1.48 0.51-2.24 1.96-8.23 4.25-16.9 9.68-23.5zm-11 124 1 2zm1 5 1 2zm1 5 1 2z" fill="#009D7B"/>
<path transform="translate(316,602)" d="m0 0h2c0.33 1.32 0.66 2.64 1 4 0.889 0.141 0.889 0.141 1.8 0.285 2.69 0.874 3.67 1.98 5.45 4.15 0.781 0.926 0.781 0.926 1.58 1.87 1.17 1.69 1.17 1.69 1.17 3.69 2.33 1.21 4.5 2.17 7 3 1.12 2.88 1.12 2.88 2 6 0.33 0.99 0.66 1.98 1 3 0.99-0.33 1.98-0.66 3-1 2.69 0.438 2.69 0.438 5 1 0.495 1.49 0.495 1.49 1 3 2 1.21 2 1.21 4 2v3c5.02 4.52 11.8 6.65 18.1 8.69 0.914 0.301 1.83 0.602 2.77 0.912 7.32 2.33 14.4 3.77 22.1 4.4v-2c20.5-3.63 20.5-3.63 29.8-2.03 2.3 0.289 2.3 0.289 3.76-1.43 0.48-0.509 0.959-1.02 1.45-1.54 2.73-0.391 5.23-0.136 8 0 0.33-0.99 0.66-1.98 1-3 0.33 0.99 0.66 1.98 1 3 1.9 0.0272 3.79 0.0465 5.69 0.0625 1.58 0.0174 1.58 0.0174 3.2 0.0352 2.84-0.089 5.36-0.448 8.11-1.1-0.33 0.66-0.66 1.32-1 2 0.66 0.66 1.32 1.32 2 2-31.7 13-67.7 16.4-100 3.16-20-8.57-32.7-22.6-42-42.2v-2c-0.66-0.33-1.32-0.66-2-1h2v-2z" fill="#009D7C"/>
<path transform="translate(321,459)" d="m0 0c2 1.38 2 1.38 4 3v2l2 2c-0.75 1.88-0.75 1.88-2 4-0.66 0.248-1.32 0.495-2 0.75-2.47 1.54-2.53 2.31-3.25 5.06-0.901 4.4-1.19 7.88 0.25 12.2-0.165 0.639-0.33 1.28-0.5 1.94-0.677 2.06-0.677 2.06 0.0625 4.06 0.574 2.62-0.201 3.76-1.56 6-0.33-1.32-0.66-2.64-1-4-0.251 3.51-0.251 3.51 1.03 6.69 1.41 3.36 0.969 6.52 0.66 10.1-0.0549 0.716-0.11 1.43-0.166 2.17-0.161 2.03-0.34 4.05-0.521 6.08-0.0748 0.887-0.15 1.77-0.227 2.69-0.267 2.62-0.526 4.85-1.77 7.19-1.19 2.52-1.41 4.61-1.63 7.38-0.0748 0.892-0.15 1.78-0.227 2.7-0.049 0.675-0.098 1.35-0.148 2.05h-3v22h6c1.07 3.2 1.09 5.41 1.03 8.77-0.0122 1.14-0.0245 2.27-0.0371 3.44-0.035 2.39-0.074 4.78-0.117 7.16-0.011 1.14-0.0219 2.28-0.0332 3.46-0.0253 1.56-0.0253 1.56-0.051 3.15 0.23 3.29 1.05 5.95 2.21 9.02-1.69 0.75-1.69 0.75-4 1-3.18-2.01-4.75-3.34-6.11-6.88-0.317-1.6-0.317-1.6-0.641-3.24-0.229-1.15-0.459-2.3-0.695-3.48-0.603-3.69-1.07-7.35-1.34-11.1-0.185-2.41-0.185-2.41-0.716-5.11-0.467-3.03-0.622-5.84-0.624-8.9-0.00315-1.1-0.0063-2.19-0.00955-3.32 0.00202-1.17 0.00405-2.34 0.00613-3.55-9.57e-4 -1.22-0.00191-2.45-0.0029-3.71-6.8e-4 -2.59 0.00116-5.18 0.00534-7.77 0.00531-3.92 6.72e-5 -7.84-0.00635-11.8 6.62e-4 -2.52 0.00194-5.05 0.00391-7.57-0.00202-1.16-0.00405-2.31-0.00613-3.5 0.0335-11.9 0.609-23.6 3.39-35.2 0.22-0.939 0.441-1.88 0.668-2.84 4.9-20.2 4.9-20.2 11.1-24.1zm-11 129 1 2zm1 5 1 2z" fill="#009D7B"/>
<path transform="translate(920,430)" d="m0 0h3c0.495 0.99 0.495 0.99 1 2 0.99 0.248 0.99 0.248 2 0.5 0.99 0.248 0.99 0.248 2 0.5 0.495 0.99 0.495 0.99 1 2-1.32 0.33-2.64 0.66-4 1 2.31 0.33 4.62 0.66 7 1v-2h5c0.495 0.99 0.495 0.99 1 2h6c0.495 1.98 0.495 1.98 1 4h2c-0.217-0.866-0.217-0.866-0.438-1.75-0.521-2.08-1.04-4.17-1.56-6.25 2.47 1.15 4.05 2.05 6 4 0.411 2.71 0.411 2.71 0.633 6.1 0.0838 1.21 0.168 2.42 0.254 3.67 0.0786 1.27 0.157 2.54 0.238 3.85 0.0864 1.28 0.173 2.56 0.262 3.88 0.213 3.17 0.417 6.33 0.613 9.5-4.86 0-7.66-1.85-11.8-4.19-24-13.2-52-15.2-78.3-7.71-0.98 0.296-1.96 0.593-2.97 0.898 0-3 0-3 2-5 1.33-0.667 2.67-1.33 4-2 0.825-0.639 1.65-1.28 2.5-1.94 7.72-5.14 16.4-5.3 25.3-4.33 4.81 0.404 9.39-0.157 14.2-0.734 1.83-0.169 3.67-0.335 5.5-0.5 2.77-0.252 4.83-0.611 7.5-1.5-0.66-1.98-1.32-3.96-2-6 0.33-0.33 0.66-0.66 1-1z" fill="#009D7C"/>
<path transform="translate(800,601)" d="m0 0c0.66 0.33 1.32 0.66 2 1 0.289 0.908 0.577 1.82 0.875 2.75 0.948 3.34 0.948 3.34 3.25 5.88 1.88 2.38 1.88 2.38 1.88 6.38 0.804 0.247 1.61 0.495 2.44 0.75 2.56 1.25 2.56 1.25 3.38 3.38 0.0619 0.619 0.124 1.24 0.188 1.88h3c0.0412 0.598 0.0825 1.2 0.125 1.81 0.714 2.49 0.714 2.49 3.62 3.56 3.01 1.5 3.92 2.18 5.88 4.69 2.14 2.64 3.27 3.79 6.38 4.94v2c0.699 0.193 1.4 0.387 2.12 0.586 0.91 0.26 1.82 0.521 2.76 0.789 1.36 0.383 1.36 0.383 2.74 0.773 2.38 0.852 2.38 0.852 4.38 2.85 2.17 0.539 2.17 0.539 4.69 0.816 0.946 0.124 1.89 0.249 2.87 0.377 0.992 0.122 1.98 0.244 3.01 0.369 0.965 0.126 1.93 0.251 2.92 0.381 2.84 0.366 5.67 0.714 8.51 1.06 0.817 0.102 1.63 0.203 2.48 0.308 4.53 0.54 8.96 0.828 13.5 0.817 1.11 0.00258 2.23 0.00516 3.38 0.00781 2.55 0.165 2.55 0.165 3.62-1.13 1.51-0.133 3.03-0.203 4.55-0.246 0.926-0.0329 1.85-0.0657 2.81-0.0996 1.96-0.0608 3.92-0.118 5.88-0.172 0.93-0.0342 1.86-0.0683 2.82-0.104 0.852-0.0251 1.7-0.0501 2.58-0.0759 2.53-0.324 4.11-1.16 6.37-2.3 2.11-0.227 2.11-0.227 4.33-0.195 0.799 0.00645 1.6 0.0129 2.42 0.0195 0.825 0.0168 1.65 0.0335 2.5 0.0508 0.84 0.00902 1.68 0.018 2.55 0.0273 2.07 0.0235 4.14 0.0594 6.2 0.0977v2c0.66 0.33 1.32 0.66 2 1-29.9 10.9-66.1 14.6-96.1 1.24-18.4-8.65-32.6-21.3-40.9-40.2v-3h2v-5z" fill="#009D7C"/>
<path transform="translate(1207,425)" d="m0 0h9v5c-0.495-0.99-0.495-0.99-1-2h-3v5h3c0.33-0.66 0.66-1.32 1-2v2h2v2h2v-2c2.31 0.66 4.62 1.32 7 2v1c-1.65 0.33-3.3 0.66-5 1v2c0.592 0.0374 1.18 0.0748 1.79 0.113 4.74 0.395 8.37 0.795 12.2 3.89v2h2v3c0.578 0.124 1.15 0.248 1.75 0.375 2.27 0.631 4.18 1.51 6.25 2.62v4h2c2.12 4.62 2.12 4.62 1 8 0.619 0.0619 1.24 0.124 1.88 0.188 2.12 0.812 2.12 0.812 3.5 3.06 0.754 3.32 0.155 4.77-1.38 7.75h2c1.56 2.81 1.56 2.81 3 6-0.33 0.99-0.66 1.98-1 3-5.95-2.09-5.95-2.09-8-5-0.188-2.69-0.188-2.69 0-5-0.66-0.33-1.32-0.66-2-1-0.557-1.03-1.11-2.06-1.69-3.12-6.31-11.3-17.3-16.6-29.3-20.1-16-4.08-35.4-3.76-50.3 3.94-0.9 0.429-1.8 0.859-2.73 1.3-0.66-0.33-1.32-0.66-2-1 0.33-1.98 0.66-3.96 1-6 5.44-0.99 5.44-0.99 11-2v-3c10.4-1.49 10.4-1.49 21-3v-1c0.996 0.0174 0.996 0.0174 2.01 0.0352 6.55 0.0838 6.55 0.0838 13-1.04v-8c-0.66-0.33-1.32-0.66-2-1v-3z" fill="#009D7C"/>
<path transform="translate(363,463)" d="m0 0c-0.516 0.743-1.03 1.49-1.56 2.25-15.8 24-16.7 47-16.8 74.9-0.0133 2.66-0.0438 5.33-0.082 7.99-0.392 26.2-0.392 26.2 9.51 50.2 0.918 1.66 0.918 1.66 0.918 4.66h2c0.268 0.598 0.536 1.2 0.812 1.81 1.08 2.23 1.08 2.23 2.81 3.81 0.454 0.454 0.908 0.908 1.38 1.38v2c0.99 0.33 1.98 0.66 3 1-0.33 0.66-0.66 1.32-1 2-6.26-4.31-10.8-7.56-12.5-15.2-0.165-0.589-0.33-1.18-0.5-1.79-0.66-0.33-1.32-0.66-2-1-5.62-12.3-7-25.1-7.66-38.5-0.104-2.71-0.104-2.71-2.34-4.55-3.28-9.06-3.65-18.5-4-28h-2l-1 2c0.61-3.56 1.58-6.68 3-10h2c-0.66-1.65-1.32-3.3-2-5h2c-0.33-1.65-0.66-3.3-1-5h-2v9l-2 1c-1.5-9.36-1.5-9.36-1-13 2.38-1.56 2.38-1.56 5-3 3.19-5.41 3.2-12.8 3-19 2.34 0.256 4.68 0.593 7 1 0.33 0.66 0.66 1.32 1 2 0.268-0.722 0.536-1.44 0.812-2.19 1.18-2.79 2.63-5.22 4.19-7.81 2.29-4.45 2.17-8.09 2-13 3.07-1.53 5.7-0.55 9 0z" fill="#009D7C"/>
<path transform="translate(407,440)" d="m0 0c2.47 0.15 4.92 0.256 7.39 0.316 0.705 0.0208 1.41 0.0416 2.14 0.063 2.24 0.0652 4.48 0.124 6.72 0.183 1.52 0.0432 3.05 0.0868 4.57 0.131 3.73 0.107 7.45 0.208 11.2 0.307 0.257 0.651 0.513 1.3 0.777 1.97 0.403 0.669 0.807 1.34 1.22 2.03 1.89 0.232 3.79 0.453 5.69 0.586 4.23 0.758 7.71 3.16 11.3 5.41v2c2.64-0.33 5.28-0.66 8-1 0.562-2.73 1.06-5.43 1.44-8.19 0.562-2.81 0.562-2.81 2.56-4.81 1.17 9.04 2.29 17.9 2 27-0.643-0.364-1.29-0.727-1.95-1.1-26.5-14.7-54.1-21.6-84.1-13.9-3.38 1.22-6.58 2.55-9.81 4.11-1.08 0.441-1.08 0.441-2.19 0.891-0.66-0.33-1.32-0.66-2-1 0.33-0.99 0.66-1.98 1-3 2.06-0.688 2.06-0.688 4-1v-5h14v-2c1.98-0.33 3.96-0.66 6-1v-2c3.97-1.53 5.97-2.03 10-1z" fill="#009D7C"/>
<path transform="translate(751,420)" d="m0 0 10 2c2.04 7.7 2.42 15.1 2.62 23.1 0.058 1.87 0.058 1.87 0.117 3.78 0.0936 3.05 0.179 6.11 0.258 9.16-1.08-0.217-2.16-0.433-3.27-0.656-15.5-2.94-30.1-3.62-45.5-0.0781-3.73 0.856-7.4 1.35-11.2 1.73v-4h4v-2h2v-3c6.43-0.495 6.43-0.495 13-1v-2l2 1c1.87 0.0703 3.75 0.0843 5.62 0.0625 1-0.00902 2.01-0.018 3.04-0.0273 1.16-0.0174 1.16-0.0174 2.34-0.0352v-2c0.619-0.124 1.24-0.248 1.88-0.375 2.32-0.497 2.32-0.497 4.12-2.62v2c3.3 0.33 6.6 0.66 10 1 0.0273-2.04 0.0465-4.08 0.0625-6.12 0.0116-1.14 0.0232-2.27 0.0352-3.45-0.0923-3.24-0.484-6.25-1.1-9.43 4.46 0.99 4.46 0.99 9 2-0.495-1.98-0.495-1.98-1-4-1.7-0.402-1.7-0.402-3.44-0.812-1.18-0.392-2.35-0.784-3.56-1.19-0.495-1.49-0.495-1.49-1-3z" fill="#009D7C"/>
<path transform="translate(1170,201)" d="m0 0c0.33 0.99 0.66 1.98 1 3 2 2.37 2.97 2.99 6 4 0.33 0.99 0.66 1.98 1 3 0.66 0.33 1.32 0.66 2 1 0.392 1.65 0.721 3.32 1 5 1.25 3.74 2.63 4.19 6 6-0.33 0.99-0.66 1.98-1 3 0.639 0.103 1.28 0.206 1.94 0.312 0.681 0.227 1.36 0.454 2.06 0.688 0.33 0.99 0.66 1.98 1 3 0.846 0.639 1.69 1.28 2.56 1.94 0.804 0.681 1.61 1.36 2.44 2.06v4c0.891 3.32 1.47 4.65 4.38 6.56 0.866 0.474 1.73 0.949 2.62 1.44 0.536 0.722 1.07 1.44 1.62 2.19 3.49 2.66 6.64 2.07 10.9 1.86 2.46-0.043 2.46-0.043 4.46 0.957 0.33-0.99 0.66-1.98 1-3-1.82-2.58-3.77-4.77-6-7v-3c-0.976-2.12-2.1-4.12-3.22-6.16-0.257-0.607-0.513-1.21-0.777-1.84 0.33-0.66 0.66-1.32 1-2 0.839 1.12 1.67 2.25 2.5 3.38 0.464 0.626 0.928 1.25 1.41 1.9 1.09 1.73 1.09 1.73 1.09 3.73 0.99 0.33 1.98 0.66 3 1v2c0.66 0.66 1.32 1.32 2 2 1.26 2.3 2.46 4.59 3.62 6.94 0.325 0.634 0.65 1.27 0.984 1.92 1.45 2.9 2.39 4.85 2.39 8.14-4.25 0.174-8.5 0.281-12.8 0.375-1.21 0.0503-2.41 0.101-3.66 0.152-8.7 0.145-8.7 0.145-11.3-1.82-1.5-2.17-2.28-4.06-2.28-6.71h-2c-4-6.62-4-6.62-4-10h-2c-0.495-2.47-0.495-2.47-1-5h-2c-1.4-2.05-1.4-2.05-2.94-4.75-1.49-2.6-2.93-5.07-4.75-7.45-1.31-1.8-1.31-1.8-1.31-3.8h-2c-0.866-1.61-0.866-1.61-1.75-3.25-1.75-3.07-3.66-5.33-6.25-7.75-1.81-2.06-1.81-2.06-3-4 0.33-0.99 0.66-1.98 1-3h2c0.33-0.33 0.66-0.66 1-1z" fill="#009D7B"/>
<path transform="translate(841,463)" d="m0 0h3c-1.43 3.1-3.18 5.61-5.25 8.31-12.1 17.1-13 37.6-12.8 57.9 0.0126 2.46 0.025 4.91 0.0371 7.37 0.025 3.82 0.0532 7.65 0.0862 11.5 0.03 3.72 0.0479 7.44 0.0642 11.2 0.0135 1.15 0.0269 2.3 0.0408 3.49 0.00338 1.06 0.00676 2.12 0.0102 3.21 0.0112 1.4 0.0112 1.4 0.0226 2.83-0.234 2.24-0.234 2.24-2.23 4.24-2.21-8.4-2.21-16.4-2-25h-2v-2h2c0.0269-2.46 0.0468-4.92 0.0625-7.38 0.00838-0.699 0.0168-1.4 0.0254-2.12 0.0957-3.88 0.0957-3.88-1.09-7.51-0.175-5.15 0.153-9.92 1-15-1.32-0.33-2.64-0.66-4-1-1.25-5.51-1.25-5.51-0.0273-7.88 1.26-2.59 1.2-4.38 1.09-7.24-0.16-4.68-0.16-4.68 0.938-6.88h2c0.0825-0.784 0.165-1.57 0.25-2.38 0.75-2.62 0.75-2.62 2.56-3.69 0.722-0.309 1.44-0.619 2.19-0.938 2.98-2.55 4.24-4.19 5-8 0.66-0.66 1.32-1.32 2-2 0.707-1.65 1.38-3.32 2-5h2c0.124-0.619 0.247-1.24 0.375-1.88 0.625-2.12 0.625-2.12 2.62-4.12z" fill="#009D7C"/>
<path transform="translate(1142,593)" d="m0 0c3.78 4.68 3.78 4.68 5.47 7.09 10 13.9 25.7 20 42 23 7.02 1.12 14 1.25 21.1 1.21 1.98-0.00846 1.98-0.00846 4-0.0171 24.5-0.303 45.4-7 67.5-17.4 2.3-1.06 4.62-2.01 6.98-2.91v4c-1.58 0.402-1.58 0.402-3.19 0.812-3.43 1.07-5.81 2.29-8.81 4.19-1.66 0.681-3.33 1.35-5 2-0.969 0.495-1.94 0.99-2.94 1.5-3 1.47-5.88 2.48-9.06 3.5-0.916 0.295-0.916 0.295-1.85 0.596-2.05 0.65-4.1 1.28-6.15 1.9-1 0.319-1 0.319-2.02 0.645-12.2 3.69-24.6 4.18-37.2 4.12-2.44-0.0108-4.87-8.84e-6 -7.3 0.0127-16.9 0.0167-34.9-2.15-48.4-13.3-0.766-0.801-0.766-0.801-1.55-1.62-1.52-1.64-1.52-1.64-4.45-2.38-1.04-1.64-2.04-3.31-3-5-0.495-0.495-0.99-0.99-1.5-1.5-1.98-1.98-3.22-4.01-4.5-6.5v-4z" fill="#000002"/>
<path transform="translate(521,346)" d="m0 0h2c1 7.62 1 7.62 1 11h2c0.255 1.45 0.255 1.45 0.516 2.92 0.242 1.26 0.485 2.53 0.734 3.83 0.232 1.25 0.464 2.51 0.703 3.8 1.14 3.77 2.01 5.03 5.05 7.45 2.6 0.547 2.6 0.547 5.42 0.391 1.02-0.0129 2.05-0.0258 3.11-0.0391 1.06-0.0335 2.13-0.067 3.22-0.102 1.08-0.018 2.16-0.0361 3.27-0.0547 2.66-0.0471 5.32-0.113 7.98-0.195v2c1.32-0.33 2.64-0.66 4-1-3.96 4.4-7 5.83-12.9 6.34-14.7 0.301-14.7 0.301-21.1-4.34-4-4.2-4-4.2-4-7h-2c-1.68-3.36-1.18-7.12-1.19-10.8-0.0122-0.808-0.0245-1.62-0.0371-2.45-0.0107-4.37 0.183-7.76 2.22-11.7z" fill="#009D7C"/>
<path transform="translate(352,593)" d="m0 0c1.9 2.27 3.71 4.52 5.25 7.05 7 11.5 18.1 18.3 30.9 21.7 29.8 7.02 58.6 0.197 84.5-15.3 0.779-0.485 1.56-0.969 2.36-1.47v8c-0.495-1.49-0.495-1.49-1-3-4.64 1.94-9.1 4.05-13.6 6.38-15.8 8.02-30.9 11-48.6 10.9-1.18 0.00773-2.37 0.0155-3.59 0.0234-16.9-0.0372-32.8-3.77-45.6-15.4-1.68-1.91-1.68-1.91-1.68-3.91-0.99-0.33-1.98-0.66-3-1-0.688-2.06-0.688-2.06-1-4h-2c-2.03-3.73-3-5.67-3-10z" fill="#000002"/>
<path transform="translate(834,595)" d="m0 0 4 5c1.11 1.33 1.11 1.33 2.25 2.69 1.75 2.31 1.75 2.31 1.75 4.31h2c0.66 0.701 1.32 1.4 2 2.12 11.3 11.6 28.3 14.8 43.8 15.2 22.7 0.21 42.8-4.78 62.1-17 2.12-1.25 2.12-1.25 4.12-1.25v4c-0.571 0.208-1.14 0.415-1.73 0.629-5.15 1.96-9.91 4.22-14.7 6.93-5.75 3.17-11.2 4.99-17.6 6.44-1.22 0.371-2.43 0.742-3.69 1.12-8.28 2.19-16.6 2.06-25.1 2.06-1.21 0.0122-2.41 0.0245-3.66 0.0371-17.5 0.0283-33.6-3.93-46.5-16.2-1.78-2.11-3.34-4.33-4.88-6.62-0.402-0.572-0.804-1.14-1.22-1.73-2.91-4.25-2.91-4.25-2.91-7.64z" fill="#000002"/>
<path transform="translate(1e3 349)" d="m0 0h1v294h-1v-294z" fill="#009B7D"/>
<path transform="translate(663,503)" d="m0 0c1.08 3.23 1.11 5.51 1.08 8.9-0.00704 1.23-0.0141 2.47-0.0213 3.74-0.013 1.37-0.0261 2.74-0.0392 4.1-0.0101 1.44-0.0198 2.88-0.0291 4.32-0.0265 3.91-0.0593 7.82-0.0931 11.7-0.0343 4.08-0.0629 8.17-0.0921 12.3-0.0562 7.73-0.118 15.5-0.181 23.2-0.0717 8.81-0.138 17.6-0.203 26.4-0.135 18.1-0.277 36.2-0.424 54.3h-3c0.0452-0.966 0.0452-0.966 0.0914-1.95 0.728-16 1.03-31.9 0.953-47.9-0.0178-3.73-0.0278-7.45-0.0359-11.2-0.0241-10.6-0.0603-21.1-0.105-31.7-0.0272-6.52-0.0438-13-0.0549-19.6-0.00619-2.47-0.0162-4.93-0.0301-7.4-0.0192-3.43-0.0261-6.86-0.0303-10.3-0.00876-1.01-0.0175-2.01-0.0266-3.05 0.00788-5.69 0.611-10.5 2.24-16z" fill="#009E7C"/>
<path transform="translate(1135,522)" d="m0 0c39.9 0.33 79.9 0.66 121 1v2c-39.3 0.33-78.5 0.66-119 1-0.66-1.32-1.32-2.64-2-4z" fill="#000002"/>
<path transform="translate(472,611)" d="m0 0c2 2 2 2 2.17 3.86-0.0396 0.741-0.0793 1.48-0.12 2.25-0.0425 0.819-0.0851 1.64-0.129 2.48-0.0831 1.29-0.0831 1.29-0.168 2.6-0.04 0.839-0.0799 1.68-0.121 2.54-0.721 12.5-0.721 12.5-4.29 15.8-5.12 2.44-5.12 2.44-7.34 2.44 0.33-1.32 0.66-2.64 1-4h-3c-0.33-0.99-0.66-1.98-1-3 0.99-1.49 0.99-1.49 2-3h-2l2-4h6c0.33 1.32 0.66 2.64 1 4h2c-0.0206-1.26-0.0412-2.52-0.0625-3.81-0.0464-2.83 0.146-4.44 1.06-7.19 0.222-1.89 0.406-3.79 0.562-5.69 0.0838-0.994 0.168-1.99 0.254-3.01 0.0606-0.759 0.121-1.52 0.184-2.3z" fill="#009D7C"/>
<path transform="translate(1140,478)" d="m0 0c1.15 3.46 0.537 4.6-0.691 7.89-4.74 13-3.78 26.5-3.31 40.1 1.98 0.33 3.96 0.66 6 1v1h-9c-0.846-4.95-1.64-9.9-2.31-14.9-0.124-0.764-0.249-1.53-0.377-2.32-0.691-5.32 0.0524-8.39 2.71-13 1.22-2.22 1.64-4.27 1.98-6.77 0.84-4.93 2.58-8.64 5-13z" fill="#009D7C"/>
<path transform="translate(413,764)" d="m0 0c1.34 1.66 2.67 3.33 4 5 0.577 0.722 1.15 1.44 1.75 2.19 1.25 1.81 1.25 1.81 1.25 3.81h2c1.23 1.58 1.23 1.58 2.62 3.81 5.82 8.98 12.2 17.3 19.3 25.3 2.75 3.13 5.11 6.18 7.12 9.86h-3c-0.0825-0.619-0.165-1.24-0.25-1.88-0.248-0.701-0.495-1.4-0.75-2.12-0.575-0.269-1.15-0.539-1.74-0.816-7.48-3.92-14.4-13.7-18.3-21.2v-3c-0.619-0.309-1.24-0.619-1.88-0.938-3.34-1.67-4.39-2.27-5.94-5.69-1.42-3-2.98-5.56-5-8.19-0.722-1.05-1.44-2.1-2.19-3.19 0.33-0.99 0.66-1.98 1-3z" fill="#009E7C"/>
<path transform="translate(964,949)" d="m0 0c0.33 1.98 0.66 3.96 1 6-4.95 1.49-4.95 1.49-10 3 3.3-0.33 6.6-0.66 10-1-1.4 2.8-3.34 3-6.18 3.95-0.684 0.222-1.37 0.443-2.07 0.672-0.669 0.229-1.34 0.459-2.03 0.695-3.68 1.21-6.85 1.97-10.7 1.68v-3c0.66 0.33 1.32 0.66 2 1 1.98-1.32 3.96-2.64 6-4-0.66-1.32-1.32-2.64-2-4 2.25-2.69 3.55-3.89 7-4.75 3-0.25 3-0.25 7-0.25z" fill="#009D7C"/>
<path transform="translate(659,422)" d="m0 0c0.99 0.66 1.98 1.32 3 2 0.33 2.38 0.33 2.38 0.265 5.4-0.017 1.13-0.034 2.26-0.0516 3.42-0.0342 1.22-0.0684 2.45-0.104 3.71-0.0241 1.25-0.0481 2.51-0.0729 3.8-0.0538 2.66-0.113 5.31-0.182 7.96-0.0886 3.4-0.16 6.8-0.225 10.2-0.0629 3.24-0.135 6.49-0.207 9.73-0.0261 1.22-0.0522 2.44-0.0792 3.7-0.0296 1.13-0.0593 2.27-0.0898 3.44-0.0246 0.998-0.0492 2-0.0745 3.02-0.159 2.35-0.517 4.38-1.18 6.63-0.66-0.33-1.32-0.66-2-1 0.33-4.29 0.66-8.58 1-13h-2c-0.841-3.41-1.05-5.69-0.125-9.06 1.38-6.16 1.54-12.3 1.8-18.6 0.243-5.82 0.652-11.6 1.33-17.4-0.99-0.66-1.98-1.32-3-2 0.66-0.66 1.32-1.32 2-2z" fill="#009D7C"/>
<path transform="translate(1231,733)" d="m0 0v3c-6.17 1.1-12.2 1.12-18.4 1.06-1.02-0.00451-2.04-0.00902-3.08-0.0137-2.49-0.0117-4.99-0.0281-7.48-0.0488-0.259 0.883-0.518 1.77-0.785 2.68-1.21 3.3-2.61 5.67-4.65 8.51-0.597 0.839-1.19 1.68-1.81 2.54-1.49 1.92-2.99 3.61-4.75 5.27 0.66-1.67 1.33-3.34 2-5 0.246-0.693 0.492-1.39 0.745-2.1 7.19-19.2 19.7-18.1 38.3-15.9z" fill="#000002"/>
<path transform="translate(955,611)" d="m0 0c0.227 6.77 4.8e-4 13.4-0.812 20.1-0.151 1.26-0.302 2.52-0.457 3.82-0.73 3.05-0.73 3.05-3.73 5.05-0.027-2.92-0.0468-5.83-0.0625-8.75-0.0126-1.24-0.0126-1.24-0.0254-2.5-0.00322-0.799-0.00645-1.6-0.00977-2.42-0.00524-0.733-0.0105-1.47-0.0159-2.22 0.117-2.16 0.525-4.03 1.11-6.11l0.562-2.25c0.217-0.866 0.217-0.866 0.438-1.75h-2c-0.33 0.66-0.66 1.32-1 2-0.33-1.32-0.66-2.64-1-4 3.62-2.12 3.62-2.12 7-1z" fill="#009D7C"/>
<path transform="translate(629,433)" d="m0 0c0.66 0.99 1.32 1.98 2 3-0.33 0.66-0.66 1.32-1 2 0.66 0.33 1.32 0.66 2 1-0.478 1.02-0.478 1.02-0.965 2.07-1.19 3.38-1.42 6.3-1.6 9.87-0.236 4.43-0.631 8.7-1.44 13.1h-1c-3.95-23.9-3.95-23.9 0-30l2-1z" fill="#009E7C"/>
<path transform="translate(370,254)" d="m0 0h5v1c6.27 0.33 12.5 0.66 19 1 0.33 0.99 0.66 1.98 1 3h-25v-5z" fill="#009D7C"/>
<path transform="translate(854 449)" d="m0 0c1.03 0.186 2.06 0.371 3.12 0.562l-2 1c1.32 0.99 2.64 1.98 4 3-0.687 0.41-1.37 0.82-2.08 1.24-1.35 0.808-1.35 0.808-2.73 1.63-1.34 0.801-1.34 0.801-2.71 1.62-1.85 1.13-3.68 2.3-5.48 3.51v-2l-2-1c4.78-8.82 4.78-8.82 9.88-9.56z" fill="#009E7C"/>
<path transform="translate(1089,99)" d="m0 0h2v2c0.566 0.0941 1.13 0.188 1.71 0.285 2.83 0.885 4.55 2.28 6.85 4.15 2.44 1.97 4.82 3.82 7.44 5.56v2c0.784 0.227 1.57 0.454 2.38 0.688 2.62 1.31 2.62 1.31 3.94 3.94 0.227 0.784 0.454 1.57 0.688 2.38-3.31-1.5-5.93-3.4-8.75-5.69-0.873-0.706-1.75-1.41-2.64-2.14-3.04-2.53-6-5.15-8.91-7.82-1.76-1.56-1.76-1.56-4.69-2.35v-3z" fill="#008C6E"/>
<path transform="translate(625,648)" d="m0 0c2.31 0.33 4.62 0.66 7 1v2c1.83-0.278 1.83-0.278 3.69-0.562 3.34-0.427 6.03-0.36 9.31 0.562v-2c5.22-0.18 9.07 0.0291 14 2v1h-33c-0.33-1.32-0.66-2.64-1-4z" fill="#009E7C"/>
<path transform="translate(1258,501)" d="m0 0h1c1.57 6.99 3.03 13.9 4 21-0.99-0.33-1.98-0.66-3-1-0.33-1.65-0.66-3.3-1-5-0.33 0.99-0.66 1.98-1 3-1.95-3.28-2.27-5.77-2.25-9.56-0.00516-0.95-0.0103-1.9-0.0156-2.88 0.266-2.56 0.266-2.56 2.27-5.56z" fill="#009D7C"/>
<path transform="translate(881 965)" d="m0 0c0.722 0.846 1.44 1.69 2.19 2.56-1.65-0.33-3.3-0.66-5-1v2c-1.67 0.217-1.67 0.217-3.38 0.438-3.45 0.346-3.45 0.346-5.62 1.56-0.33-0.99-0.66-1.98-1-3-0.66-0.66-1.32-1.32-2-2 2.33-0.685 4.66-1.35 7-2 0.866-0.309 1.73-0.619 2.62-0.938 2.38-0.0625 2.38-0.0625 5.19 2.38z" fill="#009B7D"/>
<path transform="translate(821,581)" d="m0 0c2 1.31 2 1.31 4 4 0.361 3.69 0.229 7.31 0 11-1.71-1.63-2.93-2.87-4-5-0.66 0.66-1.32 1.32-2 2-0.286-8.57-0.286-8.57 2-12z" fill="#009E7C"/>
<path transform="translate(1255,431)" d="m0 0c4.5 1.44 7.55 3.94 10.9 7.12 0.526 0.487 1.05 0.974 1.59 1.48 4 3.78 7.45 7.78 10.5 12.4-0.33 0.66-0.66 1.32-1 2-0.592-0.748-1.18-1.5-1.79-2.27-0.79-0.985-1.58-1.97-2.39-2.98-0.777-0.975-1.55-1.95-2.36-2.95-2.37-2.86-2.37-2.86-5.26-5.03-0.726-0.583-1.45-1.17-2.2-1.77v-2h-5c-0.99-1.98-1.98-3.96-3-6z" fill="#001814"/>
<path transform="translate(398,739)" d="m0 0c9.87 14.8 9.87 14.8 12 20l-1 2c-4.02-3.46-6.02-7.45-8.31-12.1-0.372-0.728-0.744-1.46-1.13-2.21-0.922-1.86-1.75-3.76-2.56-5.67l1-2z" fill="#009E7C"/>
<path transform="translate(1135,166)" d="m0 0h2v2c0.66 0.33 1.32 0.66 2 1 1.67 1.67 3.33 3.33 5 5 0.908 0.66 1.82 1.32 2.75 2 2.6 2.31 2.97 3.59 3.25 7-2 0-2 0-3.52-1.5-0.572-0.679-1.14-1.36-1.73-2.06-0.922-1.09-0.922-1.09-1.86-2.2-0.623-0.739-1.25-1.48-1.89-2.24-0.888-1-0.888-1-1.79-2.02-0.543-0.612-1.09-1.22-1.64-1.86-0.741-0.831-0.741-0.831-1.5-1.68-1.07-1.45-1.07-1.45-1.07-3.45z" fill="#009D7C"/>
<path transform="translate(561,348)" d="m0 0h2c2.6 3.88 2.3 8.01 2.25 12.5 0.00773 0.759 0.0155 1.52 0.0234 2.3-0.0135 3.87-0.0804 6.93-2.27 10.2-1.93-3.87-1.03-8.97-0.961-13.3 0.0399-4.06-0.0102-7.78-1.04-11.7z" fill="#009E7C"/>
<path transform="translate(350,606)" d="m0 0c0.66 0.66 1.32 1.32 2 2l-1 2c0.959 0.309 0.959 0.309 1.94 0.625 2.06 1.38 2.06 1.38 2.81 4.5 0.0825 0.949 0.165 1.9 0.25 2.88-4.56-0.48-4.56-0.48-6.38-2.62-0.872-3.31-0.265-6.05 0.375-9.38z" fill="#009D7C"/>
<path transform="translate(1192,200)" d="m0 0h2c0.433 0.928 0.866 1.86 1.31 2.81 1.46 2.76 2.51 4.1 4.69 6.19 3 4.56 3 4.56 3 7-3.42-1.4-4.81-2.81-6.62-6-1.36-2.36-2.44-4.06-4.38-6v-4z" fill="#008E70"/>
<path transform="translate(1009,626)" d="m0 0h1c0.33 4.95 0.66 9.9 1 15h-3c-0.33 1.65-0.66 3.3-1 5-1.29-2.58-0.935-4.09-0.625-6.94 0.0902-0.875 0.18-1.75 0.273-2.65 0.352-2.41 0.352-2.41 1.35-5.41 0.348-1.66 0.684-3.33 1-5z" fill="#009B7D"/>
<path transform="translate(1255,485)" d="m0 0c1.79 3.12 2.34 5.68 2.62 9.25 0.0748 0.892 0.15 1.78 0.227 2.7 0.049 0.675 0.098 1.35 0.148 2.05h-2c-0.534-1.41-1.05-2.83-1.56-4.25-0.29-0.789-0.58-1.58-0.879-2.39-0.609-2.57-0.465-3.91 0.441-6.36 0.33-0.33 0.66-0.66 1-1z" fill="#009E7C"/>
<path transform="translate(808,450)" d="m0 0c3 3.75 3 3.75 3 6-0.619 0.124-1.24 0.248-1.88 0.375-2.32 0.497-2.32 0.497-4.12 2.62l-2-1v-4c0.639-0.289 1.28-0.577 1.94-0.875 2.21-0.953 2.21-0.953 3.06-3.12z" fill="#009D7C"/>
<path transform="translate(1032,63)" d="m0 0c3.54 1.37 6.93 2.91 10.3 4.62 1.32 0.669 1.32 0.669 2.68 1.35 0.664 0.338 1.33 0.675 2.01 1.02-3.72 1.12-3.72 1.12-6.25 0.0625-0.578-0.351-1.15-0.701-1.75-1.06v-2h-5v-2h-2v-2z" fill="#00745C"/>
<path transform="translate(463,431)" d="m0 0c4.75 1.88 4.75 1.88 7 3-0.33 2.31-0.66 4.62-1 7-0.66-0.33-1.32-0.66-2-1v-4c-1.32-0.66-2.64-1.32-4-2v-3z" fill="#006953"/>
<path transform="translate(1015,411)" d="m0 0h1c0.222 2.27 0.427 4.54 0.625 6.81 0.116 1.26 0.232 2.53 0.352 3.83 0.0234 3.36 0.0234 3.36-1.98 6.36-1.22-3.67-0.88-6.34-0.562-10.2 0.102-1.27 0.204-2.54 0.309-3.86 0.0838-0.976 0.168-1.95 0.254-2.96z" fill="#009E7C"/>
<path transform="translate(752,6)" d="m0 0h9c0.33 0.99 0.66 1.98 1 3-6.4 1.23-6.4 1.23-9.44 0.0625-0.516-0.351-1.03-0.701-1.56-1.06 0.33-0.66 0.66-1.32 1-2z" fill="#009B7C"/>
<path transform="translate(656,508)" d="m0 0c2 2 2 2 2.2 3.95-0.0651 2.02-0.13 4.04-0.195 6.05-1.32-0.66-2.64-1.32-4-2 0.875-6.88 0.875-6.88 2-8z" fill="#009E7C"/>
<path transform="translate(1135,557)" d="m0 0h1v11h-1v-11z" fill="#000204"/>
<path transform="translate(763,27)" d="m0 0h6v1h-6v-1z" fill="#000204"/>
<path transform="translate(826,571)" d="m0 0c0.66 1.32 1.32 2.64 2 4-0.66-0.33-1.32-0.66-2-1v-3z" fill="#000204"/>
<path transform="translate(831,27)" d="m0 0h5v1h-5v-1z" fill="#000204"/>
<path transform="translate(875,32)" d="m0 0 2 1z" fill="#000204"/>
<path transform="translate(723,32)" d="m0 0 2 1z" fill="#000204"/>
</svg>
